<?xml version="1.0" encoding="UTF-8"?>
<svg id="Layer_2" data-name="Layer 2" xmlns="http://www.w3.org/2000/svg" viewBox="0 0 362.36 244.21">
  <defs>
    <style>
      .cls-1 {
        fill: #1d252d;
      }
    </style>
  </defs>
  <g id="Layer_1-2" data-name="Layer 1">
    <polygon class="cls-1" points="360.65 135.76 317.96 135.76 241.2 48.72 217.72 75.35 196.12 52.72 195.53 52.11 241.2 .32 360.65 135.76"/>
    <polygon class="cls-1" points="261.57 135.76 214.75 135.76 195.53 115.63 188.6 108.37 166.41 85.12 159.48 77.86 131.96 49.04 49.18 135.76 2.36 135.76 131.96 0 181.96 52.37 188.89 59.63 211.08 82.87 218.01 90.14 261.57 135.76"/>
    <g>
      <path class="cls-1" d="M103.16,220.08v24.13H0v-100.72h24.8v76.6h78.36Z"/>
      <path class="cls-1" d="M200.32,210.19h-28.89l-18.26-24.13h43.74c4.36.4,4.36-9.1,4.36-9.1,0,0,0-9.36-4.36-9.36h-61.6v76.6h-24.8v-100.72h90.21c27.12,0,27.12,33.49,27.12,33.49,0,0,0,33.22-27.53,33.22Z"/>
      <path class="cls-1" d="M288.63,244.21l-28.62-55.63v55.63h-24.8v-100.72h26.85l36.79,71.06,36.66-71.06h26.85v100.72h-24.67v-55.63l-28.75,55.63h-20.31Z"/>
    </g>
  </g>
</svg>