<?xml version="1.0" encoding="UTF-8"?>
<svg id="Layer_2" data-name="Layer 2" xmlns="http://www.w3.org/2000/svg" viewBox="0 0 42.06 51.12">
  <defs>
    <style>
      .cls-1 {
        fill: #fff;
      }
    </style>
  </defs>
  <g id="Layer_1-2" data-name="Layer 1">
    <g>
      <path d="M32.27,23.47c0,.42-.09,.81-.27,1.17-.18,.35-.42,.61-.72,.77-.47,.25-1.29,.38-2.44,.38h-5.84v-4.63h5.84c1.16,0,1.98,.12,2.44,.37,.3,.16,.54,.42,.72,.77,.18,.36,.27,.75,.27,1.17Z"/>
      <path d="M21.03,0L0,8.55v24.29l21.03,18.28,17.37-15.1,.53-.46,3.13-2.72V8.55L21.03,0Zm2.16,35.02c.13,.14,.34,.25,.64,.33v.41h-5.46v-.41c.31-.08,.52-.2,.64-.33,.12-.14,.18-.34,.18-.59v-5.42H5.61v-.42c.31-.08,.52-.19,.64-.33,.12-.14,.18-.34,.18-.61V12.87c0-.27-.06-.47-.18-.6-.12-.14-.33-.25-.64-.34v-.41h5.46v.41c-.31,.08-.53,.19-.65,.33s-.18,.34-.18,.61v13.25h8.95v-6.5c0-.26-.06-.46-.18-.6-.12-.13-.33-.25-.64-.34v-.4h10.91c1.27,0,2.28,.08,3.03,.25,.74,.18,1.41,.47,1.98,.89,.59,.44,1.05,1.01,1.38,1.71,.33,.74,.5,1.52,.5,2.34,0,1.17-.32,2.2-.95,3.1-.54,.75-1.26,1.29-2.17,1.61-.9,.32-2.16,.48-3.77,.48h-6.28v5.77c0,.25,.07,.45,.19,.59Z"/>
      <path class="cls-1" d="M35.67,21.13c-.33-.7-.79-1.27-1.38-1.71-.57-.42-1.24-.71-1.98-.89-.75-.17-1.76-.25-3.03-.25h-10.91v.4c.31,.09,.52,.21,.64,.34,.12,.14,.18,.34,.18,.6v6.5H10.24V12.87c0-.27,.06-.47,.18-.61s.34-.25,.65-.33v-.41H5.61v.41c.31,.09,.52,.2,.64,.34,.12,.13,.18,.33,.18,.6v14.78c0,.27-.06,.47-.18,.61-.12,.14-.33,.25-.64,.33v.42h13.58v5.42c0,.25-.06,.45-.18,.59-.12,.13-.33,.25-.64,.33v.41h5.46v-.41c-.3-.08-.51-.19-.64-.33-.12-.14-.19-.34-.19-.59v-5.77h6.28c1.61,0,2.87-.16,3.77-.48,.91-.32,1.63-.86,2.17-1.61,.63-.9,.95-1.93,.95-3.1,0-.82-.17-1.6-.5-2.34Zm-3.67,3.51c-.18,.35-.42,.61-.72,.77-.47,.25-1.29,.38-2.44,.38h-5.84v-4.63h5.84c1.16,0,1.98,.12,2.44,.37,.3,.16,.54,.42,.72,.77,.18,.36,.27,.75,.27,1.17s-.09,.81-.27,1.17Z"/>
    </g>
  </g>
</svg>