<?xml version="1.0" encoding="UTF-8"?>
<svg id="Layer_2" data-name="Layer 2" xmlns="http://www.w3.org/2000/svg" viewBox="0 0 730.68 225.34">
  <defs>
    <style>
      .cls-1 {
        fill: #b0d7df;
      }

      .cls-2 {
        fill: #c9f6ff;
      }
    </style>
  </defs>
  <g id="Layer_1-2" data-name="Layer 1">
    <polygon class="cls-2" points="157.02 148.78 157.02 201.45 0 201.45 0 0 67.91 0 67.91 148.78 157.02 148.78"/>
    <path class="cls-1" d="M559.79,201.44h0s-61.87,.01-61.87,.01l-.58-91.8-43.74,73.67h-29.93l-43.74-70.51v88.64h-61.88v-56.27c4.77-2.58,9.18-5.55,13.21-8.88,17.76-14.67,27.15-35.53,27.15-60.33s-9.39-45.65-27.15-60.32c-4.03-3.33-8.44-6.3-13.21-8.88V0h55.83l65.62,107.34L503.39,0h55.82l.07,23.82c-10.55,11.73-16.21,26.26-16.21,42.08,0,19.66,6.5,33.32,16.45,42.96l.09,31.1-22.01,50.2,3.67,2.29c5.31,3.31,11.57,6.33,18.52,8.99Z"/>
    <path class="cls-2" d="M318.05,16.22c-14.87-9.21-34.46-14.22-57.75-14.22h-94.98V199.45h63.92v-49.5h31.06c23.29,0,42.88-5.01,57.75-14.22,20.5-12.68,32.06-33.32,32.06-59.76s-11.56-47.08-32.06-59.75Zm-62.06,85.35h-26.75V50.38h26.75c19.1,0,29.62,9.09,29.62,25.59s-10.52,25.6-29.62,25.6Z"/>
    <path class="cls-1" d="M730.68,142.15c0,17.61-8.15,32.72-23.57,43.68-17.03,12.11-42.14,18.52-72.6,18.52-26.55,0-54.6-5.29-74.75-13.71-3.4-1.41-6.57-2.92-9.48-4.51l9.4-21.45,8.08-18.42c19.19,10.41,45.04,16.75,69.01,16.75,10.15,0,37.09,0,37.09-18.97,0-6.93-4.77-11.99-14.17-15.04-7.08-2.3-16.33-3.53-27.05-4.97-27.27-3.65-59.67-7.99-73.16-31.41-4.06-7.02-6.41-15.77-6.41-26.72,0-9.22,2.16-17.66,6.26-25.15,12.85-23.57,44.76-37.8,88.39-37.8,27.68,0,55.6,5.55,74.31,14.64l-17.45,39.5c-17.47-8.75-36.44-13.18-56.48-13.18-32.93,0-37.84,12.12-37.84,19.35,0,14.84,19.35,17.63,41.76,20.86,35.05,5.05,78.66,11.34,78.66,58.03Z"/>
    <text/>
  </g>
</svg>