<?xml version="1.0" encoding="UTF-8"?>
<svg id="Layer_2" data-name="Layer 2" xmlns="http://www.w3.org/2000/svg" xmlns:xlink="http://www.w3.org/1999/xlink" viewBox="0 0 778.34 270.09">
  <defs>
    <style>
      .cls-1 {
        fill: url(#radial-gradient);
      }

      .cls-2 {
        fill: url(#linear-gradient);
      }
    </style>
    <radialGradient id="radial-gradient" cx="690.05" cy="117.9" fx="690.05" fy="117.9" r="526.78" gradientUnits="userSpaceOnUse">
      <stop offset="0" stop-color="#62c6e4"/>
      <stop offset=".52" stop-color="#48bce0"/>
      <stop offset="1" stop-color="#1d7089"/>
    </radialGradient>
    <linearGradient id="linear-gradient" x1="3.56" y1="253.18" x2="867.83" y2="246.24" gradientUnits="userSpaceOnUse">
      <stop offset="0" stop-color="#1d7089"/>
      <stop offset=".48" stop-color="#48bce0"/>
      <stop offset="1" stop-color="#62c6e4"/>
    </linearGradient>
  </defs>
  <g id="Layer_1-2" data-name="Layer 1">
    <path class="cls-1" d="M157.02,148.78v52.67H0V0H67.91V148.78h89.11ZM559.21,0h-55.82l-63.89,107.34L373.88,0h-55.83V6.77c4.77,2.58,9.18,5.55,13.21,8.88,17.76,14.67,27.15,35.53,27.15,60.32s-9.39,45.66-27.15,60.33c-4.03,3.33-8.44,6.3-13.21,8.88v56.27h61.88V112.81l43.74,70.51h29.93l43.74-73.67,.58,91.8h61.87l-.58-201.45Zm-209.1,75.97c0,26.44-11.56,47.08-32.06,59.76-14.87,9.21-34.46,14.22-57.75,14.22h-31.06v49.5h-63.92V2h94.98c23.29,0,42.88,5.01,57.75,14.22,20.5,12.67,32.06,33.31,32.06,59.75Zm-64.5,0c0-16.5-10.52-25.59-29.62-25.59h-26.75v51.19h26.75c19.1,0,29.62-9.09,29.62-25.6Z"/>
    <path class="cls-2" d="M0,230.16H8.29v28.83h11.1v10.2H0v-39.03Zm42.11,29.11v9.92H21.67v-39.03h19.99v9.93h-11.84v4.57h10.4v9.48h-10.4v5.13h12.29Zm19.94,3.12h-9.34l-1.65,6.8h-8.43l10.75-39.03h8.15l10.75,39.03h-8.57l-1.65-6.8Zm-2.28-9.48l-2.39-9.81-2.39,9.81h4.78Zm23.84,3.35l-1.86,3.29v9.65h-8.15v-39.03h8.15v14.16l8.08-14.16h9.03l-9.84,17.17,10.33,21.86h-9.59l-6.15-12.94Zm37.3,3.01v9.92h-20.44v-39.03h19.99v9.93h-11.84v4.57h10.4v9.48h-10.4v5.13h12.29Zm3.19-29.11h12.12c8.22,0,13.87,7.42,13.87,19.52s-5.65,19.52-13.87,19.52h-12.12v-39.03Zm11.77,28.77c3.48,0,5.87-3.29,5.87-9.26s-2.39-9.26-5.87-9.26h-3.48v18.51h3.48Zm50.81-14.05c0,9.03-4.36,14.72-11.2,14.72h-3.55v9.59h-8.29v-39.03h11.84c6.85,0,11.2,5.69,11.2,14.72Zm-8.36,0c0-2.84-1.09-4.57-3.37-4.57h-3.02v9.14h3.02c2.28,0,3.37-1.73,3.37-4.57Zm21.6,14.5h-2.25v9.81h-8.29v-39.03h11.84c6.85,0,11.2,5.69,11.2,14.72,0,5.63-1.69,9.87-4.64,12.27l5.16,12.04h-8.85l-4.18-9.81Zm.77-19.07h-3.02v9.14h3.02c2.28,0,3.37-1.73,3.37-4.57s-1.09-4.57-3.37-4.57Zm13.87,9.37c0-11.82,5.87-20.41,13.87-20.41s13.87,8.59,13.87,20.41-5.87,20.41-13.87,20.41-13.87-8.59-13.87-20.41Zm19.39,0c0-6.08-2.46-9.76-5.51-9.76s-5.51,3.68-5.51,9.76,2.46,9.76,5.51,9.76,5.51-3.68,5.51-9.76Zm10.39,0c0-11.82,5.87-20.41,13.87-20.41s13.87,8.59,13.87,20.41-5.87,20.41-13.87,20.41-13.87-8.59-13.87-20.41Zm19.39,0c0-6.08-2.46-9.76-5.51-9.76s-5.51,3.68-5.51,9.76,2.46,9.76,5.51,9.76,5.51-3.68,5.51-9.76Zm19.66-9.59v6.69h10.26v9.93h-10.26v12.49h-8.29v-39.03h19.99v9.93h-11.7Zm46.81,29.11l-.07-17.79-5.34,14.27h-3.65l-5.34-13.66v17.17h-7.55v-39.03h6.81l8.01,20.8,7.8-20.8h6.81l.07,39.03h-7.55Zm28.3-6.8h-9.34l-1.65,6.8h-8.43l10.75-39.03h8.15l10.75,39.03h-8.57l-1.65-6.8Zm-2.28-9.48l-2.39-9.81-2.39,9.81h4.78Zm38.07-22.75v39.03h-6.81l-9.34-17.73v17.73h-8.08v-39.03h6.81l9.34,17.73v-17.73h8.08Zm20.75,32.23h-9.34l-1.65,6.8h-8.43l10.75-39.03h8.15l10.75,39.03h-8.57l-1.65-6.8Zm-2.28-9.48l-2.39-9.81-2.39,9.81h4.78Zm29.74-4.29h7.2v16.5c-2.99,3.23-7.1,4.96-10.71,4.96-7.94,0-13.73-8.42-13.73-20.41s5.8-20.41,13.91-20.41c4.85,0,8.75,2.68,11.24,7.53l-5.3,7.42c-1.55-2.84-3.34-4.29-5.51-4.29-3.65,0-5.97,3.74-5.97,9.76s2.32,9.76,5.87,9.76c1.02,0,2-.28,3.02-.95v-9.87Zm31.18,10.65v9.92h-20.44v-39.03h19.99v9.93h-11.84v4.57h10.4v9.48h-10.4v5.13h12.29Zm25.14,9.92l-.07-17.79-5.34,14.27h-3.65l-5.34-13.66v17.17h-7.55v-39.03h6.81l8.01,20.8,7.8-20.8h6.81l.07,39.03h-7.55Zm31.99-9.92v9.92h-20.44v-39.03h19.99v9.93h-11.84v4.57h10.4v9.48h-10.4v5.13h12.29Zm27.43-29.11v39.03h-6.81l-9.34-17.73v17.73h-8.08v-39.03h6.81l9.34,17.73v-17.73h8.08Zm9.34,10.2h-7.2v-10.2h22.69v10.2h-7.2v28.83h-8.29v-28.83Zm26.62,25.71l2.67-9.59c2.32,2.17,5.41,3.57,8.11,3.57,2.35,0,3.2-.78,3.2-2.12,0-4.91-13.59-.95-13.59-15.5,0-7.25,3.83-13.16,11.45-13.16,3.3,0,6.71,1.11,9.27,3.4l-2.49,9.54c-2.42-1.95-4.71-2.9-6.85-2.9-2.42,0-3.2,1.12-3.2,2.45,0,4.68,13.59,.78,13.59,15.17,0,7.14-3.83,13.16-11.45,13.16-4.11,0-8.25-1.62-10.71-4.01Zm45.06-6.8v9.92h-20.44v-39.03h19.99v9.93h-11.84v4.57h10.4v9.48h-10.4v5.13h12.29Zm13.73,.11h-2.25v9.81h-8.29v-39.03h11.84c6.85,0,11.2,5.69,11.2,14.72,0,5.63-1.69,9.87-4.64,12.27l5.16,12.04h-8.85l-4.18-9.81Zm.77-19.07h-3.02v9.14h3.02c2.28,0,3.37-1.73,3.37-4.57s-1.09-4.57-3.37-4.57Zm41.12-10.15l-10.4,39.03h-8.15l-10.4-39.03h8.92l5.87,22.81,6.01-22.81h8.15Zm.8,0h8.29v39.03h-8.29v-39.03Zm11.31,19.52c0-11.99,5.8-20.41,13.7-20.41,4.81,0,8.6,2.79,11.03,7.81l-5.23,7.42c-1.44-2.9-3.16-4.57-5.37-4.57-3.44,0-5.76,3.79-5.76,9.76s2.32,9.76,5.76,9.76c2.21,0,3.93-1.67,5.37-4.57l5.23,7.42c-2.42,5.02-6.22,7.81-11.03,7.81-7.9,0-13.7-8.42-13.7-20.41Zm47.55,9.59v9.92h-20.44v-39.03h19.99v9.93h-11.84v4.57h10.4v9.48h-10.4v5.13h12.29Zm1.64,6.8l2.67-9.59c2.32,2.17,5.41,3.57,8.11,3.57,2.35,0,3.2-.78,3.2-2.12,0-4.91-13.59-.95-13.59-15.5,0-7.25,3.83-13.16,11.45-13.16,3.3,0,6.71,1.11,9.27,3.4l-2.49,9.54c-2.42-1.95-4.71-2.9-6.85-2.9-2.42,0-3.2,1.12-3.2,2.45,0,4.68,13.59,.78,13.59,15.17,0,7.14-3.83,13.16-11.45,13.16-4.11,0-8.25-1.62-10.71-4.01Z"/>
  </g>
</svg>