<?xml version="1.0" encoding="UTF-8"?>
<svg id="Layer_2" data-name="Layer 2" xmlns="http://www.w3.org/2000/svg" viewBox="0 0 384.48 247.35">
  <defs>
    <style>
      .cls-1 {
        fill: #333;
      }

      .cls-2 {
        fill: #1a1a1a;
      }
    </style>
  </defs>
  <g id="Layer_1-2" data-name="Layer 1">
    <g>
      <path class="cls-2" d="M20.72,120.76h19.97v15.68H0V70.36H20.72v50.4Z"/>
      <path class="cls-2" d="M67.94,86.88v8.12h20.53v15.59h-20.53v9.33h23.33v16.52H47.22V70.36h44.05v16.52h-23.33Z"/>
      <path class="cls-2" d="M141.48,126.45h-22.03l-3.27,9.99h-21.75l24.17-66.08h23.89l24.08,66.08h-21.84l-3.27-9.99Zm-5.04-15.59l-5.97-18.39-5.97,18.39h11.95Z"/>
      <path class="cls-2" d="M211.2,136.44l-19.23-28.65v28.65h-20.72V70.36h20.72v27.81l18.95-27.81h23.43l-22.77,31.64,24.27,34.44h-24.64Z"/>
      <path class="cls-2" d="M262.44,86.88v8.12h20.53v15.59h-20.53v9.33h23.33v16.52h-44.05V70.36h44.05v16.52h-23.33Z"/>
      <path class="cls-2" d="M339.29,74.56c5.19,2.8,9.19,6.69,11.99,11.67,2.8,4.98,4.2,10.64,4.2,16.99s-1.4,11.95-4.2,16.99-6.8,9.01-11.99,11.9c-5.2,2.89-11.25,4.34-18.15,4.34h-27.53V70.36h27.53c6.91,0,12.96,1.4,18.15,4.2Zm-8.91,39.57c2.74-2.55,4.11-6.19,4.11-10.92s-1.37-8.37-4.11-10.92c-2.74-2.55-6.44-3.83-11.11-3.83h-4.95v29.49h4.95c4.67,0,8.37-1.27,11.11-3.83Z"/>
    </g>
    <g>
      <path class="cls-2" d="M51.14,176.38c-1.93,3.39-4.78,6.08-8.54,8.07-3.77,1.99-8.32,2.99-13.67,2.99h-8.21v21H0v-66.08H28.93c8.09,0,14.29,2.05,18.62,6.16,4.32,4.11,6.49,9.61,6.49,16.52,0,4.17-.97,7.95-2.89,11.34Zm-18.11-11.34c0-4.04-2.15-6.07-6.44-6.07h-5.88v12.13h5.88c4.29,0,6.44-2.02,6.44-6.07Z"/>
      <path class="cls-2" d="M93.79,208.44l-12.41-23.71h-.09v23.71h-20.72v-66.08h30.8c5.35,0,9.92,.95,13.72,2.85,3.79,1.9,6.64,4.48,8.54,7.75,1.9,3.27,2.85,6.95,2.85,11.06,0,4.42-1.23,8.34-3.69,11.76-2.46,3.42-5.99,5.88-10.59,7.37l14.37,25.29h-22.77Zm-12.51-37.52h8.21c1.99,0,3.48-.45,4.48-1.35,.99-.9,1.49-2.32,1.49-4.25,0-1.74-.51-3.11-1.54-4.11-1.03-.99-2.5-1.49-4.43-1.49h-8.21v11.2Z"/>
      <path class="cls-2" d="M138.17,204.7c-5.2-2.92-9.32-6.97-12.37-12.13-3.05-5.16-4.57-10.98-4.57-17.45s1.52-12.29,4.57-17.45c3.05-5.16,7.17-9.19,12.37-12.09,5.19-2.89,10.9-4.34,17.12-4.34s11.91,1.45,17.08,4.34c5.16,2.89,9.25,6.92,12.27,12.09,3.02,5.17,4.53,10.98,4.53,17.45s-1.51,12.29-4.53,17.45c-3.02,5.17-7.12,9.21-12.32,12.13-5.2,2.93-10.87,4.39-17.03,4.39s-11.93-1.46-17.12-4.39Zm26.64-18.9c2.24-2.64,3.36-6.21,3.36-10.69s-1.12-8.13-3.36-10.78c-2.24-2.64-5.41-3.97-9.52-3.97s-7.37,1.32-9.61,3.97c-2.24,2.65-3.36,6.24-3.36,10.78s1.12,8.04,3.36,10.69,5.44,3.97,9.61,3.97,7.28-1.32,9.52-3.97Z"/>
      <path class="cls-2" d="M211.71,204.7c-5.2-2.92-9.32-6.97-12.37-12.13-3.05-5.16-4.57-10.98-4.57-17.45s1.52-12.29,4.57-17.45c3.05-5.16,7.17-9.19,12.37-12.09,5.19-2.89,10.9-4.34,17.12-4.34s11.91,1.45,17.08,4.34c5.16,2.89,9.25,6.92,12.27,12.09,3.02,5.17,4.53,10.98,4.53,17.45s-1.51,12.29-4.53,17.45c-3.02,5.17-7.12,9.21-12.32,12.13-5.2,2.93-10.87,4.39-17.03,4.39s-11.93-1.46-17.12-4.39Zm26.64-18.9c2.24-2.64,3.36-6.21,3.36-10.69s-1.12-8.13-3.36-10.78c-2.24-2.64-5.41-3.97-9.52-3.97s-7.37,1.32-9.61,3.97c-2.24,2.65-3.36,6.24-3.36,10.78s1.12,8.04,3.36,10.69,5.44,3.97,9.61,3.97,7.28-1.32,9.52-3.97Z"/>
      <path class="cls-2" d="M316.85,142.36v16.43h-25.95v9.15h18.67v15.59h-18.67v24.92h-20.72v-66.08h46.67Z"/>
    </g>
    <g>
      <path class="cls-1" d="M30,221.92c1.29,1.41,1.94,3.32,1.94,5.74v10.66h-7.2v-9.75c0-.78-.23-1.4-.7-1.84-.47-.45-1.09-.67-1.87-.67s-1.43,.22-1.89,.67-.68,1.06-.68,1.84v9.75h-7.2v-9.75c0-.78-.23-1.4-.7-1.84-.47-.45-1.09-.67-1.87-.67s-1.43,.22-1.89,.67c-.46,.45-.68,1.06-.68,1.84v9.75H0v-18.38H7.24v2.48c.52-.78,1.23-1.41,2.13-1.89,.9-.48,1.96-.72,3.18-.72,1.32,0,2.5,.29,3.52,.86,1.02,.58,1.84,1.38,2.44,2.43,.67-.96,1.53-1.74,2.58-2.36,1.04-.62,2.19-.93,3.46-.93,2.35,0,4.17,.71,5.46,2.12Z"/>
      <path class="cls-1" d="M35.09,224.09c.66-1.42,1.57-2.51,2.72-3.26,1.15-.75,2.44-1.12,3.88-1.12,1.19,0,2.23,.24,3.1,.73,.87,.49,1.53,1.16,1.99,2v-2.51h7.2v18.38h-7.2v-2.51c-.46,.85-1.12,1.52-1.99,2-.87,.49-1.9,.73-3.1,.73-1.43,0-2.73-.38-3.88-1.12-1.15-.75-2.06-1.84-2.72-3.26-.66-1.42-.99-3.1-.99-5.04s.33-3.61,.99-5.04Zm10.94,2.75c-.5-.54-1.14-.81-1.92-.81s-1.42,.27-1.92,.81c-.5,.54-.75,1.3-.75,2.28s.25,1.74,.75,2.28c.5,.54,1.14,.82,1.92,.82s1.42-.27,1.92-.82c.5-.54,.75-1.3,.75-2.28s-.25-1.74-.75-2.28Z"/>
      <path class="cls-1" d="M75.05,221.92c1.18,1.41,1.78,3.32,1.78,5.74v10.66h-7.2v-9.75c0-.87-.23-1.56-.7-2.07-.47-.51-1.09-.77-1.87-.77s-1.43,.25-1.89,.77c-.46,.51-.68,1.2-.68,2.07v9.75h-7.24v-18.38h7.24v2.8c.56-.87,1.32-1.58,2.27-2.12s2.07-.82,3.37-.82c2.11,0,3.75,.71,4.94,2.12Z"/>
      <path class="cls-1" d="M79.97,224.09c.66-1.42,1.57-2.51,2.72-3.26,1.15-.75,2.44-1.12,3.88-1.12,1.19,0,2.23,.24,3.1,.73,.87,.49,1.53,1.16,1.99,2v-2.51h7.2v18.38h-7.2v-2.51c-.46,.85-1.12,1.52-1.99,2-.87,.49-1.9,.73-3.1,.73-1.43,0-2.73-.38-3.88-1.12-1.15-.75-2.06-1.84-2.72-3.26-.66-1.42-.99-3.1-.99-5.04s.33-3.61,.99-5.04Zm10.94,2.75c-.5-.54-1.14-.81-1.92-.81s-1.42,.27-1.92,.81c-.5,.54-.75,1.3-.75,2.28s.25,1.74,.75,2.28c.5,.54,1.14,.82,1.92,.82s1.42-.27,1.92-.82c.5-.54,.75-1.3,.75-2.28s-.25-1.74-.75-2.28Z"/>
      <path class="cls-1" d="M111.83,220.44c.87,.49,1.53,1.16,1.99,2v-2.51h7.2v18.06c0,1.72-.31,3.28-.94,4.69-.63,1.41-1.65,2.54-3.05,3.39-1.4,.85-3.2,1.27-5.39,1.27-2.96,0-5.3-.69-7.02-2.07s-2.71-3.25-2.95-5.62h7.11c.2,.96,.98,1.43,2.35,1.43,.85,0,1.51-.22,1.99-.65s.72-1.25,.72-2.44v-2.18c-.46,.85-1.12,1.52-1.99,2-.87,.49-1.9,.73-3.1,.73-1.43,0-2.73-.38-3.88-1.12-1.15-.75-2.06-1.84-2.72-3.26-.66-1.42-.99-3.1-.99-5.04s.33-3.61,.99-5.04c.66-1.42,1.57-2.51,2.72-3.26,1.15-.75,2.44-1.12,3.88-1.12,1.19,0,2.23,.24,3.1,.73Zm1.24,6.4c-.5-.54-1.14-.81-1.92-.81s-1.42,.27-1.92,.81c-.5,.54-.75,1.3-.75,2.28s.25,1.74,.75,2.28c.5,.54,1.14,.82,1.92,.82s1.42-.27,1.92-.82c.5-.54,.75-1.3,.75-2.28s-.25-1.74-.75-2.28Z"/>
      <path class="cls-1" d="M141.98,230.4h-11.64c.11,1.59,.77,2.38,1.99,2.38,.78,0,1.35-.36,1.69-1.08h7.66c-.26,1.3-.81,2.47-1.65,3.5-.84,1.03-1.89,1.85-3.16,2.44-1.27,.6-2.67,.9-4.19,.9-1.83,0-3.45-.38-4.87-1.14-1.42-.76-2.53-1.85-3.32-3.28-.79-1.42-1.19-3.09-1.19-5s.4-3.58,1.19-5c.79-1.42,1.9-2.52,3.32-3.28,1.42-.76,3.05-1.14,4.87-1.14s3.45,.38,4.87,1.12c1.42,.75,2.53,1.82,3.32,3.21,.79,1.39,1.19,3.03,1.19,4.92,0,.5-.03,.98-.1,1.43Zm-7.24-3.16c0-.61-.2-1.07-.59-1.38-.39-.32-.88-.47-1.47-.47-1.28,0-2.03,.62-2.25,1.86h4.3Z"/>
      <path class="cls-1" d="M174.36,221.92c1.29,1.41,1.94,3.32,1.94,5.74v10.66h-7.2v-9.75c0-.78-.23-1.4-.7-1.84-.47-.45-1.09-.67-1.87-.67s-1.43,.22-1.89,.67-.68,1.06-.68,1.84v9.75h-7.2v-9.75c0-.78-.23-1.4-.7-1.84-.47-.45-1.09-.67-1.87-.67s-1.43,.22-1.89,.67c-.46,.45-.68,1.06-.68,1.84v9.75h-7.24v-18.38h7.24v2.48c.52-.78,1.23-1.41,2.13-1.89,.9-.48,1.96-.72,3.18-.72,1.32,0,2.5,.29,3.52,.86,1.02,.58,1.84,1.38,2.44,2.43,.67-.96,1.53-1.74,2.58-2.36,1.04-.62,2.19-.93,3.46-.93,2.35,0,4.17,.71,5.46,2.12Z"/>
      <path class="cls-1" d="M197.13,230.4h-11.64c.11,1.59,.77,2.38,1.99,2.38,.78,0,1.35-.36,1.69-1.08h7.66c-.26,1.3-.81,2.47-1.65,3.5-.84,1.03-1.89,1.85-3.16,2.44-1.27,.6-2.67,.9-4.19,.9-1.83,0-3.45-.38-4.87-1.14-1.42-.76-2.53-1.85-3.32-3.28-.79-1.42-1.19-3.09-1.19-5s.4-3.58,1.19-5c.79-1.42,1.9-2.52,3.32-3.28,1.42-.76,3.05-1.14,4.87-1.14s3.45,.38,4.87,1.12c1.42,.75,2.53,1.82,3.32,3.21,.79,1.39,1.19,3.03,1.19,4.92,0,.5-.03,.98-.1,1.43Zm-7.24-3.16c0-.61-.2-1.07-.59-1.38-.39-.32-.88-.47-1.47-.47-1.28,0-2.03,.62-2.25,1.86h4.3Z"/>
      <path class="cls-1" d="M217.32,221.92c1.18,1.41,1.78,3.32,1.78,5.74v10.66h-7.2v-9.75c0-.87-.23-1.56-.7-2.07-.47-.51-1.09-.77-1.87-.77s-1.43,.25-1.89,.77c-.46,.51-.68,1.2-.68,2.07v9.75h-7.24v-18.38h7.24v2.8c.56-.87,1.32-1.58,2.27-2.12s2.07-.82,3.37-.82c2.11,0,3.75,.71,4.94,2.12Z"/>
      <path class="cls-1" d="M233.67,232.16v6.16h-2.74c-5.04,0-7.56-2.51-7.56-7.53v-4.82h-2.28v-6.03h2.28v-4.43h7.24v4.43h3v6.03h-3v4.96c0,.43,.1,.75,.31,.94,.21,.2,.55,.29,1.03,.29h1.73Z"/>
      <path class="cls-1" d="M245.55,237.7c-1.34-.57-2.4-1.35-3.18-2.35s-1.23-2.13-1.34-3.39h6.94c.09,.54,.32,.95,.7,1.21,.38,.26,.86,.39,1.45,.39,.37,0,.66-.08,.88-.24s.33-.36,.33-.6c0-.41-.23-.71-.68-.88-.46-.17-1.23-.37-2.31-.59-1.33-.26-2.42-.54-3.28-.85-.86-.3-1.61-.83-2.25-1.57-.64-.74-.96-1.76-.96-3.06,0-1.13,.3-2.16,.9-3.08s1.48-1.65,2.66-2.18,2.6-.8,4.27-.8c2.48,0,4.42,.61,5.82,1.83,1.4,1.22,2.24,2.8,2.53,4.76h-6.42c-.11-.5-.34-.88-.68-1.16-.35-.27-.81-.41-1.4-.41-.37,0-.65,.07-.85,.21-.2,.14-.29,.35-.29,.64,0,.37,.23,.65,.68,.83s1.18,.38,2.18,.57c1.33,.26,2.44,.55,3.36,.88s1.71,.89,2.38,1.68c.67,.79,1.01,1.89,1.01,3.28,0,1.09-.31,2.07-.95,2.93-.63,.87-1.54,1.55-2.72,2.05-1.18,.5-2.57,.75-4.16,.75-1.74,0-3.28-.28-4.61-.85Z"/>
      <path class="cls-1" d="M278.55,230.4h-11.64c.11,1.59,.77,2.38,1.99,2.38,.78,0,1.35-.36,1.69-1.08h7.66c-.26,1.3-.81,2.47-1.65,3.5-.84,1.03-1.89,1.85-3.16,2.44-1.27,.6-2.67,.9-4.19,.9-1.83,0-3.45-.38-4.87-1.14-1.42-.76-2.53-1.85-3.32-3.28-.79-1.42-1.19-3.09-1.19-5s.4-3.58,1.19-5c.79-1.42,1.9-2.52,3.32-3.28,1.42-.76,3.05-1.14,4.87-1.14s3.45,.38,4.87,1.12c1.42,.75,2.53,1.82,3.32,3.21,.79,1.39,1.19,3.03,1.19,4.92,0,.5-.03,.98-.1,1.43Zm-7.24-3.16c0-.61-.2-1.07-.59-1.38-.39-.32-.88-.47-1.47-.47-1.28,0-2.03,.62-2.25,1.86h4.3Z"/>
      <path class="cls-1" d="M290.87,220.77c1.06-.64,2.17-.96,3.32-.96v7.72h-2.05c-1.37,0-2.37,.24-3.02,.72-.64,.48-.96,1.33-.96,2.54v7.53h-7.24v-18.38h7.24v3.39c.74-1.06,1.64-1.92,2.71-2.56Z"/>
      <path class="cls-1" d="M305.47,231.44l2.93-11.51h7.69l-6.13,18.38h-9.03l-6.13-18.38h7.69l2.97,11.51Z"/>
      <path class="cls-1" d="M318.64,217.46c-.76-.67-1.14-1.52-1.14-2.54s.38-1.91,1.14-2.59c.76-.68,1.77-1.03,3.03-1.03s2.24,.34,3,1.03c.76,.68,1.14,1.55,1.14,2.59s-.38,1.87-1.14,2.54c-.76,.67-1.76,1.01-3,1.01s-2.27-.34-3.03-1.01Zm6.62,2.48v18.38h-7.24v-18.38h7.24Z"/>
      <path class="cls-1" d="M328.73,224.12c.79-1.42,1.9-2.52,3.32-3.28,1.42-.76,3.05-1.14,4.87-1.14,2.39,0,4.41,.67,6.05,2.02,1.64,1.35,2.68,3.22,3.11,5.61h-7.66c-.28-.96-.84-1.43-1.66-1.43-.59,0-1.05,.27-1.39,.81s-.51,1.35-.51,2.41,.17,1.87,.51,2.41,.8,.81,1.39,.81c.83,0,1.38-.48,1.66-1.43h7.66c-.43,2.39-1.47,4.26-3.11,5.61-1.64,1.35-3.66,2.02-6.05,2.02-1.83,0-3.45-.38-4.87-1.14-1.42-.76-2.53-1.85-3.32-3.28-.79-1.42-1.19-3.09-1.19-5s.4-3.58,1.19-5Z"/>
      <path class="cls-1" d="M366.06,230.4h-11.64c.11,1.59,.77,2.38,1.99,2.38,.78,0,1.35-.36,1.69-1.08h7.66c-.26,1.3-.81,2.47-1.65,3.5-.84,1.03-1.89,1.85-3.16,2.44-1.27,.6-2.67,.9-4.19,.9-1.83,0-3.45-.38-4.87-1.14-1.42-.76-2.53-1.85-3.32-3.28-.79-1.42-1.19-3.09-1.19-5s.4-3.58,1.19-5c.79-1.42,1.9-2.52,3.32-3.28,1.42-.76,3.05-1.14,4.87-1.14s3.45,.38,4.87,1.12c1.42,.75,2.53,1.82,3.32,3.21,.79,1.39,1.19,3.03,1.19,4.92,0,.5-.03,.98-.1,1.43Zm-7.24-3.16c0-.61-.2-1.07-.59-1.38-.39-.32-.88-.47-1.47-.47-1.28,0-2.03,.62-2.25,1.86h4.3Z"/>
      <path class="cls-1" d="M372.01,237.7c-1.34-.57-2.4-1.35-3.18-2.35s-1.23-2.13-1.34-3.39h6.94c.09,.54,.32,.95,.7,1.21,.38,.26,.86,.39,1.45,.39,.37,0,.66-.08,.88-.24s.33-.36,.33-.6c0-.41-.23-.71-.68-.88-.46-.17-1.23-.37-2.31-.59-1.33-.26-2.42-.54-3.28-.85-.86-.3-1.61-.83-2.25-1.57-.64-.74-.96-1.76-.96-3.06,0-1.13,.3-2.16,.9-3.08s1.48-1.65,2.66-2.18,2.6-.8,4.27-.8c2.48,0,4.42,.61,5.82,1.83,1.4,1.22,2.24,2.8,2.53,4.76h-6.42c-.11-.5-.34-.88-.68-1.16-.35-.27-.81-.41-1.4-.41-.37,0-.65,.07-.85,.21-.2,.14-.29,.35-.29,.64,0,.37,.23,.65,.68,.83s1.18,.38,2.18,.57c1.33,.26,2.44,.55,3.36,.88s1.71,.89,2.38,1.68c.67,.79,1.01,1.89,1.01,3.28,0,1.09-.31,2.07-.95,2.93-.63,.87-1.54,1.55-2.72,2.05-1.18,.5-2.57,.75-4.16,.75-1.74,0-3.28-.28-4.61-.85Z"/>
    </g>
    <polygon class="cls-1" points="171.24 0 2.34 59 340.14 59 171.24 0"/>
  </g>
</svg>