<?xml version="1.0" encoding="UTF-8"?>
<svg id="Layer_2" data-name="Layer 2" xmlns="http://www.w3.org/2000/svg" viewBox="0 0 363.71 273.73">
  <defs>
    <style>
      .cls-1 {
        fill: #334155;
      }
    </style>
  </defs>
  <g id="Layer_1-2" data-name="Layer 1">
    <g>
      <polygon class="cls-1" points="182.36 52.37 159.88 77.86 132.36 49.04 49.58 135.76 2.76 135.76 132.36 0 182.36 52.37"/>
      <polygon class="cls-1" points="261.97 135.76 215.15 135.76 195.93 115.63 218.41 90.14 261.97 135.76"/>
    </g>
    <polygon class="cls-1" points="361.05 135.76 318.36 135.76 241.6 48.72 218.12 75.35 211.48 82.87 189 108.37 185.68 112.13 182.36 115.89 164.84 135.76 122.15 135.76 160.17 92.65 163.49 88.89 166.81 85.12 189.29 59.63 192.61 55.87 195.93 52.11 241.6 .32 361.05 135.76"/>
    <g>
      <polygon class="cls-1" points="93.6 247.2 93.6 273.73 0 273.73 0 142.91 30.22 142.91 30.22 247.2 93.6 247.2"/>
      <path class="cls-1" d="M207.01,171.11c-2.15-5.28-5.1-10.01-8.85-14.19-3.74-4.18-8.23-7.56-13.45-10.14-4.03-1.99-8.37-3.22-13.02-3.67-1.37-.13-2.77-.2-4.2-.2h-55.83v130.82h30.22v-42.19h26.53c6.26,0,11.97-1.23,17.13-3.69,5.16-2.45,9.55-5.77,13.18-9.95,3.62-4.17,6.45-8.9,8.47-14.18,2.03-5.28,3.04-10.81,3.04-16.59,0-5.4-1.07-10.74-3.22-16.02ZM175.78,200.59c-2.58,3.07-5.65,4.6-9.21,4.6h-24.69v-35.74h23.58c1.72,0,3.44.34,5.16,1.01,1.72.68,3.25,1.75,4.61,3.22,1.35,1.48,2.42,3.32,3.22,5.53s1.2,4.86,1.2,7.92c0,5.9-1.29,10.39-3.87,13.46Z"/>
      <polygon class="cls-1" points="363.71 142.91 363.71 273.73 333.49 273.73 333.49 195.43 305.12 252.36 288.91 252.36 260.53 195.43 260.53 273.73 230.31 273.73 230.31 142.91 263.11 142.91 264.52 145.76 297.01 211.27 329.68 145.76 331.1 142.91 363.71 142.91"/>
    </g>
  </g>
</svg>