<?xml version="1.0" encoding="UTF-8"?>
<svg id="Layer_2" data-name="Layer 2" xmlns="http://www.w3.org/2000/svg" viewBox="0 0 665.21 184.77">
  <defs>
    <style>
      .cls-1 {
        fill: #323e4c;
      }
    </style>
  </defs>
  <g id="Layer_1-2" data-name="Layer 1">
    <g>
      <path class="cls-1" d="M79.66,0L0,42.55v101.48l79.65,40.73,79.29-40.45V42.55L79.66,0Zm70.87,83.1c0,11.15-.01,22.29-.03,33.44,0,.57,.2,1.18-.25,1.9-1.19-.72-2.35-1.44-3.54-2.13-.67-.39-.53-1-.53-1.6,.02-21.87,.03-43.74,.04-65.6v-4.1c1.45,.34,2.56,1.2,3.78,1.81,.93,.46,.52,1.41,.53,2.12,.02,11.39,.01,22.77,0,34.16Zm-11.08,37.41c-1.57-.93-3.59-1.34-4.39-3.31,3.35,1.74,6.74,3.39,9.58,5.93-1.73-.87-3.52-1.64-5.19-2.63Zm1.66,7.48c-1.78,.8-3.3,1.5-5.05,1.88q1.25-2.86,5.05-1.88Zm-8.37,2.68c0,.85-.11,1.46-1.03,1.86-4.88,2.09-9.73,4.26-14.59,6.4h0c-.09,.09-.18,.17-.28,.26-.05-.07-.09-.15-.14-.23-.02-2.65-.05-5.31-.08-7.96-.05-.24-.15-.46-.15-.7-.02-11.26-.18-22.51,.15-33.76,.02-.66,.12-1.32,.19-2.04,.6,.25,1.16,.44,1.76,.26,4.28-1.24,8.66-.37,12.99-.65,1.43-.09,1.14,.93,1.15,1.71,.03,7.74,.04,15.49,.05,23.23,0,3.87-.03,7.75-.01,11.62Zm-14.45-43.24c-4.18,.2-7.72-1.05-11.04-3.25-1.6-1.06-3.19-1.48-5.09-1.42-4.71,.14-9.44,.13-14.15,.18-1.4,.58-2,.33-2.07-1.41-.2-5.09-.15-10.17-.11-15.26,.02-2.62,.33-3.11,2.98-3.39,3.53-.37,7.07-.85,10.65-.68,.28-.03,.56-.06,.84-.09,.06-.29,.14-.58,.16-.88,.15-1.96,1.36-2.77,3.24-2.12,1.02,.36,.52,1.3,.67,1.99,.04,.44,.07,.88,.11,1.33,2.92,.14,2.81-.56,2.96,2.82,.02,.42,.15,.86,.09,1.26-.29,2.01,.71,2.38,2.47,2.26,1.17-.08,1.68-.4,1.6-1.58-.04-.7,0-1.32,1.02-1.3,1.02,.01,.89,.75,1.07,1.35,.17,.56-.34,1.45,.71,1.6,1.07,.15,2.16,.41,3.23,.1,.39-.11,.27-.64,.26-.98-.03-1.05,.37-2.01,.56-3.02,.16-.88,.68-1.03,1.42-1.01,.86,.02,.94,.61,.95,1.25,.03,3.15,.05,6.3,.07,9.44,0,1.33-.08,2.66-.01,3.99,.03,.72-.4,1.76,1.08,1.81,1.45,.05,1.33-.82,1.33-1.75,0-4.12,.03-8.23,.04-12.35,0-.98,.03-1.83,1.39-1.79,1.41,.03,1.07,1.05,1.07,1.81,.03,3.57,.12,7.15-.03,10.71-.09,2.1,.05,3.88,2.32,4.72,3.4,1.8,6.81,3.61,10.26,5.44-.43,.63-.94,.33-1.35,.31-6.23-.28-12.47-.4-18.69-.1Zm-69.67,52.13c.05,1.6-.46,2.35-2.09,2.22-1.15,.21-2.07-.56-3.14-.72-.52-.08-.63-.52-.63-.96-.01-.67,0-1.33,.01-2,.06-3.51,.05-3.43-3.45-4.36-7.59-2-15.17-4.09-22.75-6.14-.16-.05-.29-.18-.66-.42,3.15-.91,6.11-1.77,9.06-2.64,.57-.17,1.08,.07,1.59,.22,8.63,2.47,17.36,4.56,26.11,6.55,1.37,.32,2.71,.79,4.39,1.28-3.11,1.27-6.01,1.95-8.98,2.39,.09,1.54,.48,3.02,.53,4.57ZM8.74,47.85c0-1.02,.28-1.53,1.19-1.91,.98-.41,1.91-.96,3.12-1.58,0,6.38,0,12.47,0,18.57,0,17.38,0,34.76,.05,52.14,0,1.03-.2,1.7-1.21,2.12-.98,.4-1.89,.96-3.12,1.6v-7.54c0-21.13,.02-42.27-.02-63.41ZM72.7,12.75c.96-.52,1.63-.38,2.49,.07,6.72,3.6,13.46,7.15,20.19,10.73,13.05,6.95,26.08,13.92,39.12,20.88,4.08,2.18,4.1,2.18,4.11,6.8,.02,10.29,0,20.58,0,31.01-3.02-1.32-5.54-3.33-8.51-4.53-.45-.19-.25-.75-.25-1.13-.02-4.43,.02-8.85-.06-13.28-.02-.96,.48-1.23,1.16-1.55,2.39-1.13,4.77-2.28,7.3-3.5-.8-.83-1.7-1.17-2.51-1.63-3.45-1.99-6.81-4.16-10.39-5.89-1.73-.84-3.86-.87-5.81-1.24-1.11-.21-2.23-.38-3.75-.63,2.12-1.03,3.91-1.89,5.94-2.88-3.53-1.89-6.84-3.7-10.18-5.45-9.69-5.07-19.42-10.07-29.06-15.24-2.19-1.17-3.84-1.44-6.24-.2-14.33,7.42-28.78,14.58-43.18,21.84-2.76,1.38-5.48,2.84-8.21,4.25-.48,.25-1.02,.4-1.34,1.07,1.5,.76,2.96,1.58,4.49,2.25,.77,.33,1.12,.71,1.12,1.58-.03,5.45-.03,10.91,0,16.36,0,.78-.28,1.19-.98,1.52-2.45,1.15-4.87,2.36-7.66,3.73v-2.66c0-11.15,.02-22.3-.05-33.46-.01-1.29,.68-1.64,1.54-2.09,10.91-5.76,21.8-11.53,32.71-17.28,6-3.16,12.04-6.26,18.01-9.46Zm15.03,42.99c-.13,.16-.28,.21-.46,.07-1.08,.06-2.16,.13-3.24,.2-.55,.1-1.17,.26-1.13-.61,.06-1.38-.17-2.78,1.44-3.7,2.76-1.58,5.39-3.37,8.08-5.07,.89-.33,1.55,.28,2.15,.68,4.67,3.15,9.96,4.13,15.43,4.71,4.63,.49,9.25,1.08,13.84,1.85,2.72,.45,4.76,2.47,7.15,3.9-14.4-1.4-28.73-3.81-43.25-2.03Zm30.08,7.39c-1.65,.01-3.27-.48-4.92-.4,1.68-.25,3.32-.24,4.92,.4Zm-14.03,74.64c.02,2.15-1.49,1.72-2.68,2.3,0-1.79,0-3.42,0-5.05,0-12,0-24,.01-35.99,0-.97,.05-1.93,.06-2.9,.01-1.07,.88-1.03,1.54-1.15,.9-.16,.94,.56,.96,1.17,.04,1.03,.06,2.06,.06,3.09,0,12.85-.06,25.69,.03,38.54Zm-24.14-37.04c-1.86,.18-3.24-.99-4.76-1.74-6.34-3.16-12.67-6.38-19-9.56-.48-.24-.97-.51-1.62-.43,.1,1.28-.38,2.65,.72,3.74,2.96,.73,5.36,2.62,8.12,3.85-2.99,.57-5.96,.4-8.93,.44-8.42,.06-16.84,.13-25.27,.2-2.3,.02-4.6-.01-6.9,.11-1.08,.06-1.49-.17-1.54-1.32-.14-3.16-.19-3.16,3.03-3.16,2.61,0,5.22-.11,7.82,.02,1.5,.07,1.79-.44,1.78-1.84-.03-12.12,.01-24.24,.03-36.35,0-.42,.02-.85,.01-1.27,0-.57-.02-1.05,.82-1.06,.86-.01,1.02,.4,1.03,1.11,.01,2.12,.06,4.24,.07,6.36,0,10.42,.03,20.85-.02,31.26,0,1.3,.24,1.74,1.65,1.77,1.5,.03,1.5-.68,1.5-1.77-.02-12.85,0-25.69,0-38.54,0-.55,.03-1.09,0-1.64-.04-.7,.08-1.12,.96-1.11,.87,.01,.98,.48,.99,1.15,0,1.03,.03,2.06,.04,3.09,1.15,.26,1.25,1.1,1.24,2.08-.02,4.84,.01,9.68,.01,14.53,0,5.72,.05,11.45-.03,17.18-.01,1.08,.44,2.09,.2,3.22-.2,.93-.58,1.38-1.52,1.38,.8,.64,1.74,.33,2.6,.33,1.13,0,.65-.98,.66-1.5,.02-8.16,.01-16.32,0-24.48,0-6.23,.02-12.45-.02-18.68,0-1.12,.27-1.62,1.43-1.18,1.45,.07,1.66,1.02,1.73,2.23,.61,9.8,.13,19.61,.28,29.42,.06,4.17-.48,8.35-.01,12.51,.13,1.11-.68,1.19-1.23,1.63,1.15,0,2.31-.09,3.44,.02,1.3,.11,1.61-.36,1.59-1.63-.11-8.17-.16-16.33-.17-24.5-.01-6.9,.19-13.8,.01-20.69-.06-2.62,1.58-3.5,3.33-4.09,4.13-1.39,7.87-3.58,11.82-5.35,4.24-1.9,8.44-3.88,12.64-5.85,.75-.36,1.37-.37,1.93,.29,4.43,1.92,8.62,4.29,12.93,6.45,3.61,1.81,7.37,3.37,10.78,5.49,3.15,1.95,6.72,2.94,9.82,4.91,.39,.25,.9,.36,1.09,.94-6.94-.67-13.65-1.61-19.76-5.51-4.86-3.11-10.25-5.4-15.39-8.06-4.6,1.68-8.83,4.13-13.29,6.12-3.58,1.6-7.12,3.27-10.66,4.96-.65,.31-1.85,.36-1.33,1.67,2.06,2.39,4.09,4.77,4.28,8.16,.09,1.5-.34,2.31-1.96,2.2-.37-.02-.72,.06-.82,.51,4.39,.04,8.74-.69,13.13-.57,1.72,.05,3.39-.68,5.17-.41,.54,.09,1.12-.32,1.07-1.12-.06-.93-.75-.64-1.2-.61-3.08,.2-6.14,.42-9.21,.64-.54,.04-1.08,.09-1.61,.11-1.04,.04-1.18-.37-1.12-1.43,.17-3.6,1.83-5.97,5.15-7.33,2.66-1.08,5.11-2.67,7.89-3.49,.29-1.23-.21-2.58,.6-3.72,1.15-.51,2.21-1.34,3.59-1.15,.03,.33,.06,.66,.09,.99,2.14,1.29,3.51,2.86,3.73,5.64,.24,3.18-.64,5.21-3.72,6.14-.01,3.12-.03,6.23-.04,9.35,1.95,1.57,3.19,3.35,3.12,6.1-.1,4.34,.1,8.69,.34,13.03,.1,1.8-.37,2.61-2.23,2.34-.41-.06-.84,0-1.27,0-6.78,.51-13.56,.38-20.35,.38-.97,.41-1.48,.14-1.45-.96,.02-.59,.07-1.19,0-1.78-.15-1.22,.45-1.45,1.47-1.2,.18-.01,.36-.03,.54-.04q4.2-.16,4.2-4.28c0-3.75-.03-7.5,.06-11.24,.02-1.17-.34-1.45-1.44-1.35-2.59,.22-5.18,.33-7.78,.48,.21,1.28,.95,2.35,1.68,3.29,2.73,3.52,2.61,7.59,2.57,11.68-.01,.61-.3,.85-.86,.91-1.13,.14-2.26,.29-3.39,.44-.55,2.39-.13,4.8-.15,7.2-.01,.98,.97,.75,1.56,.75,4.48-.02,8.95-.1,13.42-.13,9.61-.06,19.23-.1,28.84-.14h5.96c.09,.17,.17,.34,.26,.51-7.94,4.88-16.4,8.84-24.78,12.93Zm10.97,24.45c-2.14,.37-4.28,.77-6.42,1.14-1.04,.18-1.07,.88-1.07,1.74,.05,5.33,.03,10.66,.06,16,.02,3.56,.03,3.56-3.58,4.24-1.45,.41-2.59-.69-3.97-.77-.7-.04-.41-1.02-.41-1.57-.02-5.79-.1-11.58,.03-17.37,.03-1.68-.64-2.21-2.07-2.35-1.56-.15-3.11-.32-4.64-.69-2.07-.5-2.39-.17-2.22,1.97,.02,.24,.01,.48,.01,.72,2.34,3.44,3.52,7.23,3.53,11.39,.02,3.47,.03,3.47-3.33,4.02-1.86,.55-4.4-1.07-4.39-2.8,0-6.42,.01-12.83,.02-19.24,0-.47,.05-.95,.08-1.54,3.9,.65,7.69,1.3,11.5,1.89,.55,.09,1.48,.63,1.45-.59-.02-.81,.67-1.96-1-2.19-2.2-.3-4.39-.83-6.58-1.23-.57-.1-1.04-.17-1.04-.94,.02-6.21,.01-12.41,.01-18.54,.26-.1,.33-.15,.37-.14,3.64,1.32,3.66,1.32,3.67,5.14,.01,4.24,.02,8.47-.05,12.71-.02,1.06,.28,1.3,1.31,1.26,3.42-.14,3.41-.1,3.4-3.59,0-3.39,0-6.77,.01-10.16,0-.37,.01-.75,.02-1.12-.02-.11-.02-.21,.02-.32-.05-.34,.06-.44,.37-.24,.07,0,.12,.03,.14,.11,1.05,.91,2.57,1.11,3.43,2.28,.02,.34,.04,.68,.06,1.02,4.1,1.59,3.55,.44,3.78,5.27,.1,2.05,.05,4.11,.03,6.17-.01,.97,.21,1.39,1.37,1.18,2.63-.47,2.65-.4,2.66-3.12,.01-3.97,0-7.95,0-12.12,.74,.41,1.07,.96,1.68,.84,1.84-.38,2.02,.67,2,2.14-.05,3.51-.01,7.02,.06,10.53,.02,1.02-.2,1.56-1.31,1.66-1.44,.14-2.86,.57-4.3,.61-1.78,.05-2.55,.73-2.23,2.52,.07,.41,.09,.83,.13,1.25,2.71-.76,5.41-1.1,8.1-1.52,1.05-.22,2.11-.43,3.15-.65,.46-.1,.87-.12,.73,.56,.05,6.97,.1,13.93,.17,20.9,0,.8-.26,1.15-1.06,1.38-1.56,.45-2.97,.87-4.69,.32-1.49-.49-1.66-1.21-1.29-2.38,.38-1.21,.76-2.45,1.39-3.54,2.09-3.62,1.62-7.62,1.91-11.51,.07-.9-.48-.82-1.04-.72Zm.04-22.68v-1.69s.09,.06,.13,.09v1.59s-.08,0-.13,0Zm-46.9,1.21c-.42-1.58,.31-2,1.78-1.9,4.49,.3,8.99,.58,13.51,.33,.88-.05,1.42,.18,1.24,1.21-.65,1.3,.03,2.58,.04,3.87,.06,6.79,.04,13.57,.11,20.36,.01,1.22-.49,1.21-1.43,1.02-4.8-.98-9.54-2.23-14.42-2.78-.8-.09-.98-.48-.97-1.21,.06-6.96-.26-13.93,.15-20.9Zm-5.55-2.02c-.02-.79,.49-.82,1.08-.84,.61-.02,.95,.2,.9,.82-.1,1.23,.37,2.22,1.18,3.09,.48,.52,.56,1.17,.57,1.85,.07,5.62,.21,11.24,.19,16.86,0,1.23-1.12,1.28-2.12,1.02-1.52,.32-1.92-.26-1.89-1.8,.11-6.34,.08-12.67,.1-19.02,0-.66,.01-1.32,0-1.98Zm-5.2,14.34c-.25-1.94-.23-3.89-.03-5.83v-2.16c-.15-.28-.13-.55,.06-.81,.02-1.33,.02-2.66,.09-3.99,.02-.4-.24-1.07,.56-1.08,.56,0,.91,.33,1.02,.86,.12,.59,.24,1.2,.24,1.8,.05,5.76,.09,11.51,.11,17.26,0,.63,.16,1.34-.94,1.35-1.14,.01-1.07-.64-1.07-1.41,0-2-.02-3.99-.04-5.99Zm-12.47-34.54c2.71,1.38,5.49,2.58,8.01,4.17,1.23,.77,.59,2.48,.46,3.73-.08,.86-1.1,.44-1.69,.46-1.88,.05-3.75-.02-5.63,.03-.86,.02-1.19-.25-1.17-1.12,.03-2.36,.01-4.71,.01-7.27Zm-4.99,40.43c2.8-1.15,5.23-2.94,7.97-4.19,1.14-.52,1.73-1.29,1.62-2.67-.14-1.66-.03-3.35-.03-5.22-1.57,.74-2.96,1.39-4.57,2.16,0-4.59,0-8.98,0-13.37,0-.47,.09-.83,.67-.82,1.09,.01,2.19-.07,3.27,.03,1.06,.1,.67,1.06,.63,1.59-.1,1.48,.51,2.01,1.9,1.73,1.57-.31,2.03,.53,2.05,1.9,.02,1.51,.07,3.02,.11,4.53,.73,.07,.91,.51,1.02,1.21,.59,3.72,.21,7.46,.33,11.19,.03,1.07-.61,1.44-1.48,1.66-1.05-.22-2.07-.64-3.17-.59-.29,.01-.69,.01-.75-.36-.26-1.85-1.26-1-2.11-.58-2.38,1.18-4.81,2.24-7.32,3.11-.58,.2-1.16,.72-1.91,.27,.3-.88,1.06-1.3,1.79-1.6Zm39.65,21.11c1.92,.8,3.88,1.04,5.54,2.12,5.93,1.83,11.55,4.43,17.2,6.96,1.03,.46,1.79,.42,2.82-.07,4.03-1.91,8.1-3.73,12.35-5.1,4.32-1.68,8.4-4.03,13.08-4.74,2.09-1.34,4.64-1.35,6.94-2.26-1.27,1.77-3.25,2.48-5.14,3.32-9.15,4.4-18.3,8.78-27.43,13.21-.63,.3-1.06,.29-1.66,.01-7.58-3.57-15.19-7.1-22.77-10.67-.43-.2-1.11-.32-1.03-1.07,.03-.52,.06-1.04,.11-1.7Zm51.74-50.14c1.7-.1,1.38,1.53,1.38,2.6,.03,6.78,.02,13.57,.02,20.35h.02c0,6.85,0,13.69-.01,20.54,0,.56,.26,1.21-.49,1.6-1.25,.65-1.96,.21-1.96-1.31-.01-7.03-.02-14.06-.02-21.08s0-13.45,.04-20.17c0-.95-.33-2.44,1.02-2.52Zm3.56,22.88h.02c0-6.24,0-12.47,0-18.71,0-.49,.01-.97,.02-1.45,.01-.69,.02-1.31,1.02-1.35,1.12-.04,1.11,.69,1.14,1.43,.05,1.27,.09,2.54,.09,3.81,.02,11.93,.04,23.85,.05,35.77,0,.55,.29,1.2-.53,1.54-1.3,.56-1.8,.26-1.8-1.25-.01-6.6,0-13.2,0-19.8Zm24.43-18.09q0-3.35,3.63-4.49v18.14c-3.05-.79-3.68-1.59-3.66-4.56,.02-3.03,.02-6.06,.03-9.09Zm10.86,44.05c-6.22,2.74-12.22,6.01-18.21,9.24-4.28,2.31-8.7,4.37-12.91,6.84-2.09,1.23-4.52,1.91-6.66,3.16-2.5,1.74-5.38,2.77-8.06,4.2-5.93,3.17-11.98,6.1-17.87,9.34-1.83,1.01-3.33,1.2-5.08,.22-3.04-1.7-6.08-3.4-9.11-5.09-5.05-2.55-10.09-5.11-15.14-7.67-12.98-6.6-25.98-13.18-38.94-19.82-1.7-.87-4.08-1.25-4.87-2.85-.75-1.52-.07-3.69-.25-5.56-.15-1.64,.34-2.57,1.94-3.06,.72-.22,1.22-.15,1.86,.15,12.81,5.99,25.68,11.86,38.43,17.96,4.68,2.24,9.48,4.23,14.12,6.58,4.26,2.16,8.59,4.18,12.85,6.35,1.06,.55,1.84,.4,2.86-.09,11.3-5.35,22.48-10.95,33.85-16.18,10.29-4.74,20.42-9.79,30.62-14.71,2.28-1.1,4.94,.73,5.32,3.18,.64,4.13-1.03,6.18-4.76,7.81Z"/>
      <g>
        <path class="cls-1" d="M0,44.19c0,1.8,0,3.59,0,5.39v-5.62c0,.07,0,.15,0,.24Zm158.95,85.48v12.91c.01-.09,.02-.2,.02-.3,0-4.2-.02-8.4-.02-12.6Z"/>
        <path class="cls-1" d="M66.97,69.06c-.02-1.81,0-3.62-.09-5.43-.04-.78,.19-1.06,.97-1.1,2.05-.11,4.1-.24,6.14-.46,1.04-.12,1.22,.3,1.21,1.2-.03,4.89-.03,9.78,0,14.67,0,1.03-.37,1.37-1.37,1.34-1.93-.06-3.86-.01-5.8,0,.86-.59,1.56-1.3,1.47-2.44-.19-2.51-1.06-4.88-1.64-7.31-.08-.36-.5-.49-.9-.47Z"/>
        <path class="cls-1" d="M125.46,95.37h4.52c-.03,1.47-.13,2.95-.05,4.42,.06,1.19-.25,1.67-1.54,1.77-2.09,.17-4.15,.62-6.22,.95-1.18,.19-2.07,.04-1.8-1.51,.03-.18-.02-.36,0-.54,.16-1.67-.77-3.81,.35-4.88,1.02-.97,3.12-.16,4.75-.22Z"/>
        <path class="cls-1" d="M120.37,126.79c0-2.86,0-2.82,2.86-3.17,1.97-.25,3.93-.62,5.88-.97,.76-.14,1.03-.04,.98,.88-.24,4.34-.2,4.34-4.45,5.09-.83,.15-1.66,.32-2.49,.47q-2.77,.5-2.78-2.29Z"/>
        <path class="cls-1" d="M123.34,111.05c-.24-.01-.49-.08-.72-.03-2.26,.51-2.12,.5-2.31-1.96-.15-1.88,.34-2.71,2.33-2.72,2.17,0,4.35-.27,6.52-.45,.69-.06,.99,.07,.89,.87-.14,1.14-.14,2.3-.2,3.45-2.17,.28-4.34,.56-6.5,.84Z"/>
        <path class="cls-1" d="M129.89,116.46c.46,1.69-.4,2.2-1.94,2.34-2.04,.18-4.07,.54-6.09,.84-1.01,.15-1.52-.04-1.53-1.27,0-2.89-.02-2.9,2.93-3.13,1.56-.12,3.11-.38,4.65-.64,1.52-.25,2.57-.08,1.98,1.87Z"/>
        <path class="cls-1" d="M95.37,69.06c.04-.29,.11-.58,.11-.87q.04-3.25,3.28-3.61c1.34-.33,1.77,.15,1.72,1.56-.11,3.69-.12,7.38-.04,11.07,.03,1.25-.41,1.58-1.54,1.49-1.08-.09-2.17-.08-3.26-.12,.15-2.08,.36-4.15-.28-6.19,0-1.1,0-2.21-.01-3.31Z"/>
        <path class="cls-1" d="M88.73,78.94c-.23-4.28-.46-8.55-.69-12.83-.03-.48-.12-1.04,.61-1.06,1.54-.03,3.09-.38,4.63,.08-.02,4.03-.08,8.06-.02,12.09,.02,1.28-.2,1.91-1.64,1.72-.95-.13-1.92-.01-2.88,0Z"/>
        <path class="cls-1" d="M107.49,74.53c0-.67,0-1.33,0-2,0-2.31,.01-2.2,2.3-2.28,1.7-.06,2.19,.42,1.93,2.14-.26,1.72-.18,3.5-.14,5.26,.03,1.05-.36,1.32-1.37,1.31-2.67-.04-2.68,0-2.7-2.61,0-.61,0-1.21,0-1.82h-.01Z"/>
        <path class="cls-1" d="M113.74,74.78c0-.3,0-.6,0-.9,0-3.66,0-3.64,3.59-3.11,.65,.09,1.03,.2,.85,.96-.49,2.08-.27,4.2-.34,6.3-.04,1.14-.07,1.44-1.63,1.33-2.73-.2-2.6-1.66-2.46-3.49,.03-.36,0-.72,0-1.08h-.02Z"/>
        <path class="cls-1" d="M55.84,118.03c0,1.51-.03,3.02,0,4.53,.02,.99-.43,1.23-1.33,1.07-2.55-.47-5.09-.99-7.69-1.09-.84-.04-.92-.51-.94-1.19-.06-3.08,.26-6.16-.19-9.23-.13-.88,.39-.88,.96-.81,2.69,.31,5.38,.65,8.07,.94,.84,.09,1.1,.46,1.07,1.27-.06,1.51-.02,3.02-.02,4.53h.05Z"/>
        <path class="cls-1" d="M45.78,104.41c-.21-1.82,.75-2.03,2.26-1.78,2.55,.42,5.12,.69,7.68,1.02,.04,1.93,.08,3.86,.12,5.79-.01,.15-.02,.29-.03,.44-.37,.37-.81,.12-1.22,.13-.14-.02-.28-.05-.42-.07-2.37-.28-4.74-.6-7.12-.8-.83-.07-1.15-.29-1.13-1.15,.02-1.19-.09-2.39-.14-3.58Z"/>
        <path class="cls-1" d="M106.22,142.22c1.19,.29,2.14-.7,3.36-.68-.69,.72-1.76,.59-2.35,1.32-1.19,.5-2.38,1-3.57,1.5-.45-.79,.09-1.05,.69-1.26,.66-.22,1.44-.18,1.87-.89Z"/>
      </g>
    </g>
    <g>
      <path class="cls-1" d="M187.04,13.25h36.63V141.67h79.36v29.84h-115.98V13.25Z"/>
      <path class="cls-1" d="M460.83,70.68c0,35.27-26.45,57.2-68.73,57.2h-31.88v43.64h-36.63V13.25h68.5c42.28,0,68.73,21.93,68.73,57.43Zm-37.08,0c0-17.41-11.3-27.58-33.69-27.58h-29.84v54.94h29.84c22.38,0,33.69-10.17,33.69-27.36Z"/>
      <path class="cls-1" d="M630.85,171.51l-.23-94.96-46.57,78.23h-16.5l-46.35-76.19v92.92h-34.37V13.25h30.3l59.24,98.35,58.33-98.35h30.07l.45,158.26h-34.37Z"/>
    </g>
  </g>
</svg>