<?xml version="1.0" encoding="UTF-8"?>
<svg id="Layer_2" data-name="Layer 2" xmlns="http://www.w3.org/2000/svg" xmlns:xlink="http://www.w3.org/1999/xlink" viewBox="0 0 559.79 241.42">
  <defs>
    <style>
      .cls-1 {
        fill: url(#radial-gradient);
      }

      .cls-2 {
        fill: #62c6e4;
      }

      .cls-3 {
        fill: #1d7089;
      }
    </style>
    <radialGradient id="radial-gradient" cx="690.05" cy="117.9" fx="690.05" fy="117.9" r="526.78" gradientUnits="userSpaceOnUse">
      <stop offset="0" stop-color="#62c6e4"/>
      <stop offset=".52" stop-color="#48bce0"/>
      <stop offset="1" stop-color="#1d7089"/>
    </radialGradient>
  </defs>
  <g id="Layer_1-2" data-name="Layer 1">
    <path class="cls-1" d="M157.02,148.78v52.67H0V0H67.91V148.78h89.11ZM559.21,0h-55.82l-63.89,107.34L373.88,0h-55.83V6.77c4.77,2.58,9.18,5.55,13.21,8.88,17.76,14.67,27.15,35.53,27.15,60.32s-9.39,45.66-27.15,60.33c-4.03,3.33-8.44,6.3-13.21,8.88v56.27h61.88V112.81l43.74,70.51h29.93l43.74-73.67,.58,91.8h61.87l-.58-201.45Zm-209.1,75.97c0,26.44-11.56,47.08-32.06,59.76-14.87,9.21-34.46,14.22-57.75,14.22h-31.06v49.5h-63.92V2h94.98c23.29,0,42.88,5.01,57.75,14.22,20.5,12.67,32.06,33.31,32.06,59.75Zm-64.5,0c0-16.5-10.52-25.59-29.62-25.59h-26.75v51.19h26.75c19.1,0,29.62-9.09,29.62-25.6Z"/>
    <g>
      <path class="cls-3" d="M2.22,223.23H6.36v14.51H15.33v3.37H2.22v-17.88Z"/>
      <path class="cls-3" d="M31.49,237.79v3.32h-13.84v-17.88h13.51v3.32h-9.4v3.88h8.3v3.22h-8.3v4.14h9.73Z"/>
      <path class="cls-3" d="M46.56,237.28h-8.3l-1.58,3.83h-4.24l7.97-17.88h4.09l7.99,17.88h-4.34l-1.58-3.83Zm-1.3-3.14l-2.84-6.85-2.83,6.85h5.67Z"/>
      <path class="cls-3" d="M60.87,234.09l-2.4,2.5v4.52h-4.11v-17.88h4.11v8.35l7.92-8.35h4.6l-7.41,7.97,7.84,9.91h-4.83l-5.72-7.02Z"/>
      <path class="cls-3" d="M87.1,237.79v3.32h-13.84v-17.88h13.51v3.32h-9.4v3.88h8.3v3.22h-8.3v4.14h9.73Z"/>
      <path class="cls-3" d="M90.39,223.23h8.12c5.85,0,9.86,3.52,9.86,8.94s-4.01,8.94-9.86,8.94h-8.12v-17.88Zm7.92,14.48c3.55,0,5.88-2.12,5.88-5.54s-2.32-5.54-5.88-5.54h-3.78v11.09h3.78Z"/>
      <path class="cls-3" d="M134.22,229.72c0,3.98-2.99,6.46-7.77,6.46h-3.6v4.93h-4.14v-17.88h7.74c4.78,0,7.77,2.48,7.77,6.49Zm-4.19,0c0-1.97-1.28-3.12-3.81-3.12h-3.37v6.21h3.37c2.53,0,3.81-1.15,3.81-3.09Z"/>
      <path class="cls-3" d="M148.55,241.11l-3.45-4.98h-3.81v4.98h-4.14v-17.88h7.74c4.78,0,7.77,2.48,7.77,6.49,0,2.68-1.35,4.65-3.68,5.65l4.01,5.75h-4.44Zm-3.88-14.51h-3.37v6.23h3.37c2.53,0,3.81-1.18,3.81-3.12s-1.28-3.12-3.81-3.12Z"/>
      <path class="cls-3" d="M154.81,232.17c0-5.31,4.14-9.25,9.78-9.25s9.78,3.91,9.78,9.25-4.16,9.25-9.78,9.25-9.78-3.93-9.78-9.25Zm15.38,0c0-3.4-2.4-5.72-5.59-5.72s-5.59,2.32-5.59,5.72,2.4,5.72,5.59,5.72,5.59-2.32,5.59-5.72Z"/>
      <path class="cls-3" d="M176.36,232.17c0-5.31,4.14-9.25,9.78-9.25s9.78,3.91,9.78,9.25-4.16,9.25-9.78,9.25-9.78-3.93-9.78-9.25Zm15.38,0c0-3.4-2.4-5.72-5.59-5.72s-5.59,2.32-5.59,5.72,2.4,5.72,5.59,5.72,5.59-2.32,5.59-5.72Z"/>
      <path class="cls-3" d="M203.18,226.55v4.73h8.28v3.32h-8.28v6.51h-4.14v-17.88h13.51v3.32h-9.37Z"/>
      <path class="cls-2" d="M238.86,241.11l-.03-10.73-5.26,8.84h-1.86l-5.24-8.61v10.5h-3.88v-17.88h3.42l6.69,11.11,6.59-11.11h3.4l.05,17.88h-3.88Z"/>
      <path class="cls-2" d="M258.76,237.28h-8.3l-1.58,3.83h-4.24l7.97-17.88h4.09l7.99,17.88h-4.34l-1.58-3.83Zm-1.3-3.14l-2.84-6.85-2.83,6.85h5.67Z"/>
      <path class="cls-2" d="M282.95,223.23v17.88h-3.4l-8.91-10.86v10.86h-4.09v-17.88h3.42l8.89,10.86v-10.86h4.09Z"/>
      <path class="cls-2" d="M298.96,237.28h-8.3l-1.58,3.83h-4.24l7.97-17.88h4.09l7.99,17.88h-4.34l-1.58-3.83Zm-1.3-3.14l-2.84-6.85-2.83,6.85h5.67Z"/>
      <path class="cls-2" d="M318.58,231.89h3.78v7.25c-1.97,1.48-4.67,2.27-7.23,2.27-5.62,0-9.76-3.86-9.76-9.25s4.14-9.25,9.83-9.25c3.14,0,5.75,1.07,7.48,3.09l-2.66,2.45c-1.3-1.38-2.81-2.02-4.62-2.02-3.47,0-5.85,2.32-5.85,5.72s2.38,5.72,5.8,5.72c1.12,0,2.17-.2,3.22-.77v-5.24Z"/>
      <path class="cls-2" d="M340.03,237.79v3.32h-13.84v-17.88h13.51v3.32h-9.4v3.88h8.3v3.22h-8.3v4.14h9.73Z"/>
      <path class="cls-2" d="M359.59,241.11l-.03-10.73-5.26,8.84h-1.86l-5.24-8.61v10.5h-3.88v-17.88h3.42l6.69,11.11,6.59-11.11h3.4l.05,17.88h-3.88Z"/>
      <path class="cls-2" d="M381.56,237.79v3.32h-13.84v-17.88h13.51v3.32h-9.4v3.88h8.3v3.22h-8.3v4.14h9.73Z"/>
      <path class="cls-2" d="M401.25,223.23v17.88h-3.4l-8.91-10.86v10.86h-4.09v-17.88h3.42l8.89,10.86v-10.86h4.09Z"/>
      <path class="cls-2" d="M409.19,226.6h-5.72v-3.37h15.58v3.37h-5.72v14.51h-4.14v-14.51Z"/>
      <path class="cls-2" d="M427.1,239.35l1.4-3.12c1.51,1.1,3.75,1.86,5.9,1.86,2.45,0,3.45-.82,3.45-1.92,0-3.35-10.4-1.05-10.4-7.69,0-3.04,2.45-5.57,7.54-5.57,2.25,0,4.55,.54,6.21,1.58l-1.28,3.14c-1.66-.94-3.37-1.4-4.96-1.4-2.45,0-3.4,.92-3.4,2.04,0,3.29,10.4,1.02,10.4,7.59,0,2.99-2.48,5.54-7.59,5.54-2.84,0-5.7-.84-7.28-2.07Z"/>
      <path class="cls-2" d="M458.64,237.79v3.32h-13.84v-17.88h13.51v3.32h-9.4v3.88h8.3v3.22h-8.3v4.14h9.73Z"/>
      <path class="cls-2" d="M473.33,241.11l-3.45-4.98h-3.81v4.98h-4.14v-17.88h7.74c4.78,0,7.77,2.48,7.77,6.49,0,2.68-1.35,4.65-3.68,5.65l4.01,5.75h-4.44Zm-3.88-14.51h-3.37v6.23h3.37c2.53,0,3.81-1.18,3.81-3.12s-1.28-3.12-3.81-3.12Z"/>
      <path class="cls-2" d="M497.9,223.23l-7.74,17.88h-4.09l-7.71-17.88h4.47l5.44,12.77,5.52-12.77h4.11Z"/>
      <path class="cls-2" d="M499.38,223.23h4.14v17.88h-4.14v-17.88Z"/>
      <path class="cls-2" d="M506.63,232.17c0-5.39,4.14-9.25,9.71-9.25,3.09,0,5.67,1.12,7.36,3.17l-2.66,2.45c-1.2-1.38-2.71-2.09-4.5-2.09-3.35,0-5.72,2.35-5.72,5.72s2.38,5.72,5.72,5.72c1.79,0,3.3-.72,4.5-2.12l2.66,2.45c-1.69,2.07-4.27,3.19-7.38,3.19-5.54,0-9.68-3.86-9.68-9.25Z"/>
      <path class="cls-2" d="M540.32,237.79v3.32h-13.84v-17.88h13.51v3.32h-9.4v3.88h8.3v3.22h-8.3v4.14h9.73Z"/>
      <path class="cls-2" d="M542.21,239.35l1.4-3.12c1.51,1.1,3.75,1.86,5.9,1.86,2.45,0,3.45-.82,3.45-1.92,0-3.35-10.4-1.05-10.4-7.69,0-3.04,2.45-5.57,7.54-5.57,2.25,0,4.55,.54,6.21,1.58l-1.28,3.14c-1.66-.94-3.37-1.4-4.96-1.4-2.45,0-3.4,.92-3.4,2.04,0,3.29,10.4,1.02,10.4,7.59,0,2.99-2.48,5.54-7.59,5.54-2.84,0-5.7-.84-7.28-2.07Z"/>
    </g>
  </g>
</svg>