<?xml version="1.0" encoding="UTF-8"?>
<svg id="Layer_2" data-name="Layer 2" xmlns="http://www.w3.org/2000/svg" viewBox="0 0 559.79 201.45">
  <defs>
    <style>
      .cls-1 {
        fill: #15718b;
      }

      .cls-2 {
        fill: #1883a3;
      }

      .cls-3 {
        fill: #1c96ba;
      }
    </style>
  </defs>
  <g id="Layer_1-2" data-name="Layer 1">
    <polygon class="cls-3" points="157.02 148.78 157.02 201.45 0 201.45 0 0 67.91 0 67.91 148.78 157.02 148.78"/>
    <path class="cls-1" d="M559.79,201.45h-61.87l-.58-91.8-43.74,73.67h-29.93l-43.74-70.51v88.64h-61.88v-56.27c4.77-2.58,9.18-5.55,13.21-8.88,17.76-14.67,27.15-35.53,27.15-60.33s-9.39-45.65-27.15-60.32c-4.03-3.33-8.44-6.3-13.21-8.88V0h55.83l65.62,107.34L503.39,0h55.82l.58,201.45Z"/>
    <path class="cls-2" d="M318.05,16.22c-14.87-9.21-34.46-14.22-57.75-14.22h-94.98V199.45h63.92v-49.5h31.06c23.29,0,42.88-5.01,57.75-14.22,20.5-12.68,32.06-33.32,32.06-59.76s-11.56-47.08-32.06-59.75Zm-62.06,85.35h-26.75V50.38h26.75c19.1,0,29.62,9.09,29.62,25.59s-10.52,25.6-29.62,25.6Z"/>
  </g>
</svg>