<?xml version="1.0" encoding="UTF-8"?>
<svg id="Layer_2" data-name="Layer 2" xmlns="http://www.w3.org/2000/svg" viewBox="0 0 176.14 51.11">
  <defs>
    <style>
      .cls-1 {
        fill: #1a1a1a;
      }
    </style>
  </defs>
  <g id="Layer_1-2" data-name="Layer 1">
    <g>
      <path d="M165.36,21.53c-.46-.25-1.28-.37-2.44-.37h-5.83v4.62h5.83c1.16,0,1.97-.13,2.44-.38,.3-.16,.54-.42,.73-.77,.18-.35,.27-.74,.27-1.17s-.09-.8-.27-1.16c-.19-.35-.43-.61-.73-.77Z"/>
      <path d="M155.11,0l-21.03,8.55v24.28l21.03,18.28,21.03-18.28V8.55L155.11,0Zm14.2,26.57c-.55,.76-1.27,1.3-2.17,1.61-.9,.32-2.16,.48-3.78,.48h-6.28v5.76c0,.26,.07,.46,.19,.59,.13,.14,.34,.26,.64,.33v.41h-5.46v-.41c.31-.08,.52-.2,.64-.33,.12-.14,.18-.34,.18-.59v-5.42h-13.58v-.41c.31-.08,.52-.2,.64-.33,.12-.14,.18-.34,.18-.61V12.87c0-.26-.06-.47-.18-.6-.12-.14-.33-.25-.64-.34v-.41h5.46v.41c-.31,.08-.53,.19-.65,.33-.12,.14-.18,.35-.18,.61v13.26h8.95v-6.5c0-.26-.06-.47-.18-.6-.12-.14-.33-.25-.64-.34v-.41h10.91c1.28,0,2.28,.08,3.03,.26,.74,.17,1.4,.47,1.97,.89,.59,.44,1.05,1.01,1.39,1.71,.33,.74,.5,1.52,.5,2.33,0,1.18-.32,2.21-.95,3.1Z"/>
    </g>
    <g>
      <g>
        <path d="M4.98,16.64h11.54c.28,0,.5-.06,.65-.19,.15-.13,.27-.36,.36-.69h.44v4.86h-.44c-.09-.33-.21-.56-.36-.69-.15-.13-.36-.19-.65-.19H0v-.44c.33-.09,.56-.21,.69-.36,.13-.15,.19-.36,.19-.65V2.4c0-.28-.06-.5-.19-.65-.13-.15-.36-.27-.69-.36v-.44H5.86v.44c-.33,.08-.56,.2-.69,.35s-.19,.37-.19,.65v14.24Z"/>
        <path d="M24.91,11.49v5.14h12.08c.28,0,.49-.06,.63-.19s.27-.36,.36-.69h.44v4.86h-.44c-.09-.33-.21-.56-.36-.69s-.36-.19-.63-.19H19.93v-.44c.33-.09,.56-.21,.69-.36,.13-.15,.19-.36,.19-.65V2.4c0-.28-.06-.5-.19-.65-.13-.15-.36-.27-.69-.36v-.44h16.73c.28,0,.49-.06,.63-.2,.15-.13,.27-.36,.36-.68h.44V4.93h-.44c-.09-.33-.21-.55-.36-.69-.15-.13-.36-.2-.63-.2h-11.75v4.46h7.62c.27,0,.49-.06,.63-.19,.15-.13,.27-.36,.36-.69h.44v4.75h-.44c-.09-.32-.21-.55-.36-.68-.15-.13-.36-.2-.63-.2h-7.62Z"/>
        <path d="M55.09,14.95h-8.53l-1.26,2.64c-.17,.37-.26,.66-.26,.87,0,.4,.31,.68,.92,.84v.44h-6.21v-.44c.37-.07,.65-.2,.84-.39,.19-.18,.41-.54,.66-1.07l6.91-14.43c.22-.46,.33-.83,.33-1.1,0-.42-.27-.72-.8-.91v-.44h6.66v.44c-.54,.16-.81,.43-.81,.81,0,.27,.09,.57,.26,.91l7.15,14.47c.3,.61,.57,1.03,.8,1.26,.23,.22,.54,.37,.92,.45v.44h-6.91v-.44c.61-.1,.91-.39,.91-.85,0-.19-.09-.48-.27-.85l-1.29-2.64Zm-1.18-2.57l-3.04-6.69-3.09,6.69h6.14Z"/>
        <path d="M72.06,10.97l-2.83,2.28v5.03c0,.28,.07,.5,.2,.65,.13,.15,.36,.27,.68,.35v.44h-5.86v-.44c.33-.09,.56-.21,.69-.36,.13-.15,.19-.36,.19-.65V2.39c0-.27-.06-.49-.19-.63-.13-.15-.36-.27-.69-.36v-.44h5.86v.44c-.33,.08-.56,.2-.69,.35s-.19,.36-.19,.64v6.57l7.73-6.31c.36-.29,.54-.53,.54-.7,0-.27-.27-.45-.8-.55v-.44h7.68v.44c-.32,.06-.55,.14-.69,.22s-.54,.39-1.2,.94l-1.06,.88-6.38,5.13,7.24,8.71c.67,.81,1.15,1.33,1.45,1.56,.3,.23,.67,.39,1.12,.46v.44h-7.34v-.44c.49-.1,.73-.28,.73-.52,0-.13-.22-.47-.66-1.02l-5.53-6.78Z"/>
        <path d="M91.82,11.49v5.14h12.08c.28,0,.49-.06,.63-.19s.27-.36,.36-.69h.44v4.86h-.44c-.09-.33-.21-.56-.36-.69s-.36-.19-.63-.19h-17.06v-.44c.33-.09,.56-.21,.69-.36,.13-.15,.19-.36,.19-.65V2.4c0-.28-.06-.5-.19-.65-.13-.15-.36-.27-.69-.36v-.44h16.73c.28,0,.49-.06,.63-.2,.15-.13,.27-.36,.36-.68h.44V4.93h-.44c-.09-.33-.21-.55-.36-.69-.15-.13-.36-.2-.63-.2h-11.75v4.46h7.62c.27,0,.49-.06,.63-.19,.15-.13,.27-.36,.36-.69h.44v4.75h-.44c-.09-.32-.21-.55-.36-.68-.15-.13-.36-.2-.63-.2h-7.62Z"/>
        <path d="M109.12,18.29V2.4c0-.28-.06-.5-.19-.65-.13-.15-.36-.27-.69-.36v-.44h10.47c2.29,0,4.06,.26,5.29,.78,1.76,.76,3.06,2.02,3.91,3.77,.67,1.38,1,2.98,1,4.83,0,3.24-1,5.7-2.99,7.4-.83,.72-1.81,1.23-2.93,1.53-1.12,.31-2.55,.46-4.28,.46h-10.47v-.44c.33-.09,.56-.21,.69-.36,.13-.15,.19-.36,.19-.65Zm4.1-1.65h5.15c1.64,0,2.88-.22,3.7-.67,1.77-.96,2.66-2.84,2.66-5.63,0-2.02-.48-3.56-1.43-4.64-.53-.6-1.18-1.02-1.93-1.27-.75-.25-1.75-.38-3-.38h-5.15v12.59Z"/>
      </g>
      <g>
        <path d="M5,33.94v6.22c0,.28,.07,.49,.2,.64,.13,.15,.36,.27,.68,.35v.44H0v-.44c.33-.09,.56-.21,.69-.36,.13-.15,.19-.36,.19-.64v-15.98c0-.29-.06-.5-.19-.65s-.36-.27-.69-.36v-.44H11.78c1.37,0,2.46,.09,3.27,.28,.81,.18,1.52,.5,2.14,.95,.64,.47,1.13,1.09,1.49,1.85,.36,.79,.54,1.63,.54,2.52,0,1.27-.34,2.39-1.02,3.34-.59,.82-1.37,1.4-2.34,1.75-.97,.35-2.33,.52-4.07,.52H5Zm0-3.11h6.29c1.25,0,2.13-.13,2.64-.4,.32-.17,.58-.45,.78-.84,.2-.38,.3-.8,.3-1.26s-.1-.87-.3-1.25c-.2-.38-.46-.66-.78-.84-.5-.27-1.38-.4-2.64-.4H5v4.99Z"/>
        <path d="M26.66,33.9v6.26c0,.28,.07,.49,.2,.64,.13,.15,.36,.27,.68,.35v.44h-5.89v-.44c.33-.09,.56-.21,.69-.36,.13-.15,.19-.36,.19-.64v-15.98c0-.29-.06-.5-.19-.65s-.36-.27-.69-.36v-.44h11.8c1.44,0,2.58,.08,3.42,.25,.84,.17,1.58,.46,2.2,.87,.73,.48,1.27,1.13,1.63,1.95,.34,.79,.51,1.64,.51,2.54,0,3.08-1.71,4.88-5.13,5.4l3.66,5.21c.65,.91,1.12,1.5,1.42,1.76,.3,.26,.67,.41,1.1,.44v.44h-6.82v-.44c.47-.07,.7-.24,.7-.5,0-.17-.22-.57-.65-1.2l-3.82-5.56h-5.04Zm0-3.11h6.36c.94,0,1.6-.03,1.99-.08,.39-.06,.74-.17,1.06-.35,.7-.38,1.05-1.06,1.05-2.05s-.35-1.67-1.05-2.05c-.33-.18-.68-.3-1.06-.35-.37-.05-1.04-.08-2-.08h-6.36v4.95Z"/>
        <path d="M54.56,22.4c3.29,0,5.9,.89,7.83,2.67,2.04,1.86,3.06,4.27,3.06,7.21,0,1.81-.49,3.49-1.47,5.06-1.91,3.06-5.04,4.59-9.39,4.59-3.26,0-5.86-.89-7.79-2.67-1.03-.95-1.82-2.09-2.35-3.41-.47-1.17-.71-2.4-.71-3.69,0-1.89,.48-3.62,1.45-5.18,1.85-2.99,4.97-4.52,9.36-4.58Zm.01,3.21c-1.8,0-3.3,.53-4.5,1.6-1.42,1.26-2.13,2.91-2.13,4.96s.71,3.7,2.13,4.96c1.2,1.07,2.71,1.6,4.52,1.6s3.32-.53,4.51-1.6c.71-.64,1.25-1.41,1.63-2.33,.33-.82,.5-1.67,.5-2.54,0-2.14-.71-3.82-2.13-5.04-1.21-1.05-2.72-1.58-4.54-1.6Z"/>
        <path d="M78.78,22.4c3.29,0,5.9,.89,7.83,2.67,2.04,1.86,3.06,4.27,3.06,7.21,0,1.81-.49,3.49-1.47,5.06-1.91,3.06-5.04,4.59-9.39,4.59-3.26,0-5.86-.89-7.79-2.67-1.03-.95-1.82-2.09-2.35-3.41-.47-1.17-.71-2.4-.71-3.69,0-1.89,.48-3.62,1.45-5.18,1.85-2.99,4.97-4.52,9.36-4.58Zm.01,3.21c-1.8,0-3.3,.53-4.5,1.6-1.42,1.26-2.13,2.91-2.13,4.96s.71,3.7,2.13,4.96c1.2,1.07,2.71,1.6,4.52,1.6s3.32-.53,4.51-1.6c.71-.64,1.25-1.41,1.63-2.33,.33-.82,.5-1.67,.5-2.54,0-2.14-.71-3.82-2.13-5.04-1.21-1.05-2.72-1.58-4.54-1.6Z"/>
        <path d="M97.62,33.34v6.8c0,.29,.07,.5,.2,.66,.13,.15,.36,.27,.68,.35v.44h-5.89v-.44c.33-.09,.56-.21,.69-.36,.13-.15,.19-.36,.19-.65v-15.96c0-.29-.06-.5-.19-.65s-.36-.27-.69-.36v-.44h16.7c.28,0,.49-.06,.64-.19s.27-.36,.36-.69h.44v4.88h-.44c-.09-.34-.21-.57-.36-.69s-.36-.19-.64-.19h-11.69v4.51h7.64c.29,0,.5-.07,.65-.2,.15-.13,.27-.36,.36-.69h.44v4.77h-.44c-.09-.33-.21-.56-.36-.69-.15-.13-.36-.2-.65-.2h-7.64Z"/>
      </g>
      <g>
        <path class="cls-1" d="M3.15,50.84l-1.79-3.22v2.77c0,.09,.02,.16,.06,.21s.11,.09,.22,.12v.12H.01v-.12c.1-.03,.17-.06,.22-.11,.04-.05,.06-.12,.06-.21v-4.01c0-.09-.02-.16-.06-.21-.04-.05-.11-.09-.22-.12v-.12H2.08v.12c-.14,.04-.21,.13-.21,.25s.05,.27,.15,.44l1.22,2.22,1.23-2.19c.14-.23,.21-.39,.21-.49,0-.12-.07-.2-.21-.23v-.12h2.02v.12c-.11,.03-.18,.07-.22,.12-.04,.05-.06,.12-.06,.21v4c0,.09,.02,.16,.06,.21,.04,.05,.11,.09,.22,.12v.12h-1.73v-.12c.1-.03,.17-.06,.22-.11,.04-.05,.06-.12,.06-.21v-2.78l-1.89,3.22Z"/>
        <path class="cls-1" d="M11.06,49.61h-2.25l-.25,.53c-.06,.13-.09,.23-.09,.3,0,.14,.09,.23,.28,.27v.12h-1.8v-.12c.11-.02,.19-.05,.25-.1,.05-.05,.12-.15,.19-.29l1.79-3.62c.07-.14,.1-.26,.1-.36,0-.12-.08-.21-.24-.28v-.12h1.9v.12c-.16,.06-.24,.16-.24,.3,0,.1,.04,.21,.11,.35l1.85,3.51c.1,.19,.18,.31,.24,.37,.06,.06,.15,.1,.27,.12v.12h-2v-.12c.19-.03,.28-.12,.28-.27,0-.09-.04-.2-.11-.34l-.27-.5Zm-.35-.69l-.8-1.58-.76,1.58h1.57Z"/>
        <path class="cls-1" d="M14.91,47.61v2.78c0,.09,.02,.16,.06,.21,.04,.05,.11,.09,.22,.12v.12h-1.63v-.12c.1-.03,.17-.06,.22-.11,.04-.05,.06-.12,.06-.21v-4.01c0-.09-.02-.16-.06-.21-.04-.05-.11-.09-.22-.12v-.12h1.88v.12c-.13,.03-.19,.09-.19,.17,0,.07,.05,.15,.14,.24l2.63,2.61v-2.7c0-.09-.02-.16-.06-.21-.04-.05-.11-.09-.22-.12v-.12h1.63v.12c-.1,.03-.18,.07-.22,.12-.04,.05-.06,.12-.06,.21v4c0,.09,.02,.16,.06,.21,.04,.05,.11,.09,.22,.12v.12h-1.75v-.12c.13-.03,.19-.08,.19-.16,0-.04-.02-.08-.05-.13s-.12-.13-.24-.26l-2.6-2.56Z"/>
        <path class="cls-1" d="M23.93,49.61h-2.25l-.25,.53c-.06,.13-.09,.23-.09,.3,0,.14,.09,.23,.28,.27v.12h-1.8v-.12c.11-.02,.19-.05,.25-.1,.05-.05,.12-.15,.19-.29l1.79-3.62c.07-.14,.1-.26,.1-.36,0-.12-.08-.21-.24-.28v-.12h1.9v.12c-.16,.06-.24,.16-.24,.3,0,.1,.04,.21,.11,.35l1.85,3.51c.1,.19,.18,.31,.24,.37,.06,.06,.15,.1,.27,.12v.12h-2v-.12c.19-.03,.28-.12,.28-.27,0-.09-.04-.2-.11-.34l-.27-.5Zm-.35-.69l-.8-1.58-.76,1.58h1.57Z"/>
        <path class="cls-1" d="M30.85,48.95h-1.12c-.09,0-.16,.02-.21,.06-.05,.04-.09,.11-.12,.22h-.12v-1.3h.12c.03,.1,.07,.18,.12,.22,.05,.04,.12,.06,.21,.06h2.33v.13c-.1,.03-.17,.07-.22,.13-.04,.06-.06,.13-.06,.24v1.03c0,.09,.02,.16,.06,.21,.04,.05,.11,.09,.22,.12v.1c-.94,.52-1.89,.78-2.83,.78-.81,0-1.47-.19-1.97-.57-.27-.21-.49-.47-.66-.78-.2-.37-.29-.76-.29-1.18,0-.58,.18-1.09,.53-1.54,.55-.69,1.37-1.04,2.46-1.04,.48,0,1.02,.11,1.63,.32,.24,.08,.38,.12,.42,.12,.05,0,.11-.02,.18-.07l.1,.06-.58,1.23-.1-.05v-.03c0-.11-.11-.22-.32-.33-.4-.21-.83-.32-1.28-.32-.53,0-.96,.14-1.3,.43-.36,.3-.53,.71-.53,1.22,0,.48,.16,.87,.49,1.15,.33,.29,.8,.44,1.4,.44s1.05-.11,1.45-.32v-.75Z"/>
        <path class="cls-1" d="M34.23,48.75v1.19h3.11c.09,0,.16-.02,.21-.06,.05-.04,.09-.11,.12-.22h.12v1.45h-.12c-.03-.1-.06-.17-.11-.22s-.12-.06-.21-.06h-4.56v-.12c.1-.03,.17-.06,.22-.11,.04-.05,.06-.12,.06-.21v-4.01c0-.09-.02-.16-.06-.21-.04-.05-.11-.09-.22-.12v-.12h4.43c.09,0,.16-.02,.21-.06,.05-.04,.09-.11,.12-.22h.12v1.45h-.12c-.03-.11-.07-.18-.12-.22-.05-.04-.12-.06-.21-.06h-2.97v1.08h1.85c.09,0,.16-.02,.21-.06,.05-.04,.09-.11,.12-.22h.12v1.41h-.12c-.03-.1-.07-.18-.12-.22-.05-.04-.12-.06-.21-.06h-1.85Z"/>
        <path class="cls-1" d="M41.66,50.84l-1.79-3.22v2.77c0,.09,.02,.16,.06,.21s.11,.09,.22,.12v.12h-1.63v-.12c.1-.03,.17-.06,.22-.11,.04-.05,.06-.12,.06-.21v-4.01c0-.09-.02-.16-.06-.21-.04-.05-.11-.09-.22-.12v-.12h2.07v.12c-.14,.04-.21,.13-.21,.25s.05,.27,.15,.44l1.22,2.22,1.23-2.19c.14-.23,.21-.39,.21-.49,0-.12-.07-.2-.21-.23v-.12h2.02v.12c-.11,.03-.18,.07-.22,.12-.04,.05-.06,.12-.06,.21v4c0,.09,.02,.16,.06,.21,.04,.05,.11,.09,.22,.12v.12h-1.73v-.12c.1-.03,.17-.06,.22-.11,.04-.05,.06-.12,.06-.21v-2.78l-1.89,3.22Z"/>
        <path class="cls-1" d="M47.32,48.75v1.19h3.11c.09,0,.16-.02,.21-.06,.05-.04,.09-.11,.12-.22h.12v1.45h-.12c-.03-.1-.06-.17-.11-.22s-.12-.06-.21-.06h-4.56v-.12c.1-.03,.17-.06,.22-.11,.04-.05,.06-.12,.06-.21v-4.01c0-.09-.02-.16-.06-.21-.04-.05-.11-.09-.22-.12v-.12h4.43c.09,0,.16-.02,.21-.06,.05-.04,.09-.11,.12-.22h.12v1.45h-.12c-.03-.11-.07-.18-.12-.22-.05-.04-.12-.06-.21-.06h-2.97v1.08h1.85c.09,0,.16-.02,.21-.06,.05-.04,.09-.11,.12-.22h.12v1.41h-.12c-.03-.1-.07-.18-.12-.22-.05-.04-.12-.06-.21-.06h-1.85Z"/>
        <path class="cls-1" d="M52.96,47.61v2.78c0,.09,.02,.16,.06,.21,.04,.05,.11,.09,.22,.12v.12h-1.63v-.12c.1-.03,.17-.06,.22-.11,.04-.05,.06-.12,.06-.21v-4.01c0-.09-.02-.16-.06-.21-.04-.05-.11-.09-.22-.12v-.12h1.88v.12c-.13,.03-.19,.09-.19,.17,0,.07,.05,.15,.14,.24l2.63,2.61v-2.7c0-.09-.02-.16-.06-.21-.04-.05-.11-.09-.22-.12v-.12h1.63v.12c-.1,.03-.18,.07-.22,.12-.04,.05-.06,.12-.06,.21v4c0,.09,.02,.16,.06,.21,.04,.05,.11,.09,.22,.12v.12h-1.75v-.12c.13-.03,.19-.08,.19-.16,0-.04-.02-.08-.05-.13s-.12-.13-.24-.26l-2.6-2.56Z"/>
        <path class="cls-1" d="M60.97,46.82v3.56c0,.09,.02,.16,.06,.21,.04,.05,.11,.09,.22,.12v.12h-1.73v-.12c.1-.03,.17-.06,.22-.11,.04-.05,.06-.12,.06-.21v-3.56h-1.44c-.09,0-.16,.02-.21,.06-.05,.04-.09,.11-.12,.22h-.12v-1.45h.12c.03,.1,.06,.17,.11,.22s.12,.06,.21,.06h4.06c.09,0,.16-.02,.21-.06,.05-.04,.09-.11,.12-.22h.12v1.45h-.12c-.03-.1-.07-.18-.12-.22-.05-.04-.12-.06-.21-.06h-1.44Z"/>
        <path class="cls-1" d="M70.31,46.38l-.59,1.14-.1-.06c0-.1-.03-.17-.09-.23-.17-.15-.41-.27-.73-.37-.32-.1-.65-.14-.98-.14-.28,0-.53,.04-.75,.12-.31,.11-.47,.28-.47,.49,0,.14,.08,.24,.23,.3,.15,.06,.44,.11,.88,.14l.69,.05c.6,.05,1.06,.16,1.38,.35,.18,.1,.32,.24,.43,.42,.14,.22,.21,.47,.21,.74,0,.5-.22,.89-.67,1.18-.43,.28-1.01,.42-1.74,.42s-1.45-.16-2.14-.47c-.05-.02-.09-.03-.12-.03-.06,0-.11,.03-.16,.1l-.11-.04,.5-1.2,.11,.04v.04c0,.08,.03,.14,.09,.19,.15,.13,.4,.24,.76,.33,.36,.09,.71,.14,1.06,.14,.31,0,.59-.04,.83-.12,.3-.1,.45-.26,.45-.48,0-.18-.1-.3-.31-.37-.14-.05-.39-.09-.76-.12l-.69-.06c-.37-.03-.65-.07-.85-.11s-.37-.12-.51-.21c-.19-.12-.33-.28-.44-.48s-.16-.42-.16-.66c0-.54,.23-.95,.69-1.23,.42-.26,.94-.38,1.56-.38,.34,0,.65,.04,.94,.11s.64,.2,1.04,.39c.12,.06,.2,.08,.25,.08s.11-.03,.18-.1l.1,.06Z"/>
        <path class="cls-1" d="M72.57,48.75v1.19h3.11c.09,0,.16-.02,.21-.06,.05-.04,.09-.11,.12-.22h.12v1.45h-.12c-.03-.1-.06-.17-.11-.22s-.12-.06-.21-.06h-4.56v-.12c.1-.03,.17-.06,.22-.11,.04-.05,.06-.12,.06-.21v-4.01c0-.09-.02-.16-.06-.21-.04-.05-.11-.09-.22-.12v-.12h4.43c.09,0,.16-.02,.21-.06,.05-.04,.09-.11,.12-.22h.12v1.45h-.12c-.03-.11-.07-.18-.12-.22-.05-.04-.12-.06-.21-.06h-2.97v1.08h1.85c.09,0,.16-.02,.21-.06,.05-.04,.09-.11,.12-.22h.12v1.41h-.12c-.03-.1-.07-.18-.12-.22-.05-.04-.12-.06-.21-.06h-1.85Z"/>
        <path class="cls-1" d="M78.32,48.82v1.56c0,.09,.02,.16,.06,.21,.04,.05,.11,.09,.22,.12v.12h-1.73v-.12c.1-.03,.17-.06,.22-.11,.04-.05,.06-.12,.06-.21v-4.01c0-.09-.02-.16-.06-.21-.04-.05-.11-.09-.22-.12v-.12h3.21c.42,0,.73,.02,.95,.06,.22,.04,.41,.12,.59,.23,.35,.23,.53,.61,.53,1.13,0,.4-.11,.71-.33,.93-.22,.22-.57,.38-1.05,.48l.93,1.29c.17,.24,.3,.4,.4,.49,.1,.09,.22,.14,.34,.16v.12h-2.06v-.12c.15-.04,.23-.11,.23-.2,0-.06-.05-.16-.14-.29l-.98-1.4h-1.17Zm0-.89h1.77c.27,0,.47-.03,.59-.09,.18-.08,.27-.23,.27-.47,0-.21-.06-.35-.19-.43-.13-.08-.35-.12-.68-.12h-1.77v1.11Z"/>
        <path class="cls-1" d="M85.33,49.28l1.19-2.59c.07-.15,.1-.26,.1-.33,0-.15-.09-.25-.28-.3v-.12h1.89v.12c-.12,.04-.2,.08-.25,.14-.05,.06-.12,.17-.2,.34l-1.72,3.61c-.06,.13-.09,.23-.09,.29,0,.15,.1,.24,.29,.28v.12h-1.92v-.12c.19-.04,.28-.13,.28-.28,0-.07-.03-.16-.09-.29l-1.72-3.61c-.08-.17-.15-.29-.2-.34-.05-.05-.14-.1-.26-.14v-.12h1.96v.12c-.19,.06-.28,.16-.28,.3,0,.06,.04,.17,.11,.33l1.18,2.59Z"/>
        <path class="cls-1" d="M90.08,46.38v4c0,.09,.02,.16,.06,.21,.04,.05,.11,.09,.22,.12v.12h-1.73v-.12c.1-.03,.17-.06,.22-.11,.04-.05,.06-.12,.06-.21v-4.01c0-.09-.02-.16-.06-.21-.04-.05-.11-.09-.22-.12v-.12h1.73v.12c-.1,.03-.18,.07-.22,.12-.04,.05-.06,.12-.06,.21Z"/>
        <path class="cls-1" d="M96.01,49.08l.74,1.08-.1,.07c-.07-.05-.13-.07-.17-.07-.05,0-.16,.05-.35,.16-.4,.23-.75,.39-1.06,.49s-.66,.14-1.06,.14c-.8,0-1.45-.19-1.95-.57-.29-.22-.51-.49-.68-.82-.18-.36-.27-.74-.27-1.16,0-.57,.17-1.08,.5-1.52,.52-.69,1.32-1.03,2.4-1.03,.4,0,.75,.05,1.07,.14,.31,.09,.66,.25,1.06,.49,.18,.11,.3,.16,.35,.16,.04,0,.1-.02,.17-.07l.1,.08-.74,1.07-.1-.07s0-.06,0-.07c0-.03,0-.05,0-.06,0-.14-.2-.3-.59-.48-.37-.17-.75-.26-1.13-.26-.53,0-.97,.14-1.31,.42-.39,.31-.59,.72-.59,1.21s.2,.9,.59,1.21c.35,.28,.78,.41,1.31,.41,.41,0,.83-.1,1.24-.31,.32-.16,.48-.31,.48-.43,0,0,0-.05-.01-.12l.1-.07Z"/>
        <path class="cls-1" d="M98.92,48.75v1.19h3.11c.09,0,.16-.02,.21-.06,.05-.04,.09-.11,.11-.22h.12v1.45h-.12c-.03-.1-.06-.17-.11-.22-.05-.04-.12-.06-.21-.06h-4.56v-.12c.1-.03,.17-.06,.22-.11,.04-.05,.06-.12,.06-.21v-4.01c0-.09-.02-.16-.06-.21s-.11-.09-.22-.12v-.12h4.43c.09,0,.16-.02,.21-.06,.05-.04,.09-.11,.12-.22h.12v1.45h-.12c-.03-.11-.07-.18-.12-.22s-.12-.06-.21-.06h-2.97v1.08h1.85c.09,0,.16-.02,.21-.06,.05-.04,.09-.11,.12-.22h.12v1.41h-.12c-.03-.1-.07-.18-.12-.22-.05-.04-.12-.06-.21-.06h-1.85Z"/>
        <path class="cls-1" d="M107.92,46.38l-.59,1.14-.1-.06c0-.1-.03-.17-.09-.23-.17-.15-.41-.27-.73-.37-.32-.1-.65-.14-.98-.14-.28,0-.53,.04-.75,.12-.31,.11-.47,.28-.47,.49,0,.14,.08,.24,.23,.3,.15,.06,.44,.11,.88,.14l.69,.05c.6,.05,1.06,.16,1.38,.35,.17,.1,.32,.24,.43,.42,.14,.22,.22,.47,.22,.74,0,.5-.22,.89-.67,1.18-.43,.28-1.01,.42-1.74,.42s-1.45-.16-2.14-.47c-.05-.02-.09-.03-.12-.03-.06,0-.11,.03-.16,.1l-.11-.04,.5-1.2,.11,.04v.04c0,.08,.03,.14,.09,.19,.15,.13,.4,.24,.76,.33,.36,.09,.71,.14,1.06,.14,.31,0,.59-.04,.83-.12,.3-.1,.45-.26,.45-.48,0-.18-.1-.3-.31-.37-.14-.05-.39-.09-.76-.12l-.69-.06c-.37-.03-.65-.07-.85-.11s-.37-.12-.51-.21c-.19-.12-.33-.28-.44-.48s-.16-.42-.16-.66c0-.54,.23-.95,.69-1.23,.42-.26,.94-.38,1.56-.38,.34,0,.65,.04,.94,.11,.29,.07,.64,.2,1.04,.39,.12,.06,.2,.08,.25,.08s.11-.03,.18-.1l.1,.06Z"/>
      </g>
    </g>
  </g>
</svg>