<?xml version="1.0" encoding="UTF-8"?>
<svg id="Layer_2" data-name="Layer 2" xmlns="http://www.w3.org/2000/svg" xmlns:xlink="http://www.w3.org/1999/xlink" viewBox="0 0 657.41 236.44">
  <defs>
    <style>
      .cls-1 {
        fill: url(#radial-gradient);
      }

      .cls-2 {
        fill: url(#linear-gradient);
      }
    </style>
    <radialGradient id="radial-gradient" cx="690.05" cy="117.9" fx="690.05" fy="117.9" r="526.78" gradientUnits="userSpaceOnUse">
      <stop offset="0" stop-color="#62c6e4"/>
      <stop offset=".52" stop-color="#48bce0"/>
      <stop offset="1" stop-color="#1d7089"/>
    </radialGradient>
    <linearGradient id="linear-gradient" x1="8.86" y1="228.47" x2="732.34" y2="222.66" gradientUnits="userSpaceOnUse">
      <stop offset="0" stop-color="#1d7089"/>
      <stop offset=".48" stop-color="#48bce0"/>
      <stop offset="1" stop-color="#62c6e4"/>
    </linearGradient>
  </defs>
  <g id="Layer_1-2" data-name="Layer 1">
    <path class="cls-1" d="M157.02,148.78v52.67H0V0H67.91V148.78h89.11ZM559.21,0h-55.82l-63.89,107.34L373.88,0h-55.83V6.77c4.77,2.58,9.18,5.55,13.21,8.88,17.76,14.67,27.15,35.53,27.15,60.32s-9.39,45.66-27.15,60.33c-4.03,3.33-8.44,6.3-13.21,8.88v56.27h61.88V112.81l43.74,70.51h29.93l43.74-73.67,.58,91.8h61.87l-.58-201.45Zm-209.1,75.97c0,26.44-11.56,47.08-32.06,59.76-14.87,9.21-34.46,14.22-57.75,14.22h-31.06v49.5h-63.92V2h94.98c23.29,0,42.88,5.01,57.75,14.22,20.5,12.67,32.06,33.31,32.06,59.75Zm-64.5,0c0-16.5-10.52-25.59-29.62-25.59h-26.75v51.19h26.75c19.1,0,29.62-9.09,29.62-25.6Z"/>
    <path class="cls-2" d="M5.83,215.39h6.94v15.2h9.29v5.38H5.83v-20.58Zm35.25,15.35v5.23H23.97v-20.58h16.73v5.23h-9.91v2.41h8.7v5h-8.7v2.71h10.29Zm16.7,1.65h-7.82l-1.38,3.59h-7.06l9-20.58h6.82l9,20.58h-7.17l-1.38-3.59Zm-1.91-5l-2-5.17-2,5.17h4Zm19.96,1.76l-1.56,1.73v5.09h-6.82v-20.58h6.82v7.47l6.76-7.47h7.56l-8.23,9.06,8.65,11.53h-8.03l-5.15-6.82Zm31.22,1.59v5.23h-17.11v-20.58h16.73v5.23h-9.91v2.41h8.7v5h-8.7v2.71h10.29Zm2.67-15.35h10.14c6.88,0,11.61,3.91,11.61,10.29s-4.73,10.29-11.61,10.29h-10.14v-20.58Zm9.85,15.17c2.91,0,4.91-1.74,4.91-4.88s-2-4.88-4.91-4.88h-2.91v9.76h2.91Zm42.54-7.41c0,4.76-3.65,7.76-9.38,7.76h-2.97v5.06h-6.94v-20.58h9.91c5.73,0,9.38,3,9.38,7.76Zm-7,0c0-1.5-.91-2.41-2.82-2.41h-2.53v4.82h2.53c1.91,0,2.82-.91,2.82-2.41Zm18.08,7.65h-1.88v5.17h-6.94v-20.58h9.91c5.73,0,9.38,3,9.38,7.76,0,2.97-1.41,5.21-3.88,6.47l4.32,6.35h-7.41l-3.5-5.17Zm.65-10.06h-2.53v4.82h2.53c1.91,0,2.82-.91,2.82-2.41s-.91-2.41-2.82-2.41Zm11.61,4.94c0-6.23,4.91-10.76,11.61-10.76s11.61,4.53,11.61,10.76-4.91,10.76-11.61,10.76-11.61-4.53-11.61-10.76Zm16.23,0c0-3.21-2.06-5.15-4.62-5.15s-4.62,1.94-4.62,5.15,2.06,5.15,4.62,5.15,4.62-1.94,4.62-5.15Zm8.7,0c0-6.23,4.91-10.76,11.61-10.76s11.61,4.53,11.61,10.76-4.91,10.76-11.61,10.76-11.61-4.53-11.61-10.76Zm16.23,0c0-3.21-2.06-5.15-4.62-5.15s-4.62,1.94-4.62,5.15,2.06,5.15,4.62,5.15,4.62-1.94,4.62-5.15Zm16.46-5.06v3.53h8.59v5.23h-8.59v6.59h-6.94v-20.58h16.73v5.23h-9.79Zm39.19,15.35l-.06-9.38-4.47,7.53h-3.06l-4.47-7.2v9.06h-6.32v-20.58h5.7l6.7,10.97,6.53-10.97h5.7l.06,20.58h-6.32Zm23.69-3.59h-7.82l-1.38,3.59h-7.06l9-20.58h6.82l9,20.58h-7.17l-1.38-3.59Zm-1.91-5l-2-5.17-2,5.17h4Zm31.87-12v20.58h-5.7l-7.82-9.35v9.35h-6.76v-20.58h5.7l7.82,9.35v-9.35h6.76Zm17.37,17h-7.82l-1.38,3.59h-7.06l9-20.58h6.82l9,20.58h-7.17l-1.38-3.59Zm-1.91-5l-2-5.17-2,5.17h4Zm24.9-2.26h6.03v8.7c-2.5,1.71-5.94,2.62-8.97,2.62-6.65,0-11.5-4.44-11.5-10.76s4.85-10.76,11.64-10.76c4.06,0,7.32,1.41,9.41,3.97l-4.44,3.91c-1.29-1.5-2.79-2.26-4.62-2.26-3.06,0-5,1.97-5,5.15s1.94,5.15,4.91,5.15c.85,0,1.68-.15,2.53-.5v-5.2Zm26.11,5.62v5.23h-17.11v-20.58h16.73v5.23h-9.91v2.41h8.7v5h-8.7v2.71h10.29Zm21.05,5.23l-.06-9.38-4.47,7.53h-3.06l-4.47-7.2v9.06h-6.32v-20.58h5.7l6.7,10.97,6.53-10.97h5.7l.06,20.58h-6.32Zm26.78-5.23v5.23h-17.11v-20.58h16.73v5.23h-9.91v2.41h8.7v5h-8.7v2.71h10.29Zm22.96-15.35v20.58h-5.7l-7.82-9.35v9.35h-6.76v-20.58h5.7l7.82,9.35v-9.35h6.76Zm7.82,5.38h-6.03v-5.38h18.99v5.38h-6.03v15.2h-6.94v-15.2Zm22.28,13.56l2.23-5.06c1.94,1.15,4.53,1.88,6.79,1.88,1.97,0,2.68-.41,2.68-1.12,0-2.59-11.38-.5-11.38-8.17,0-3.82,3.21-6.94,9.59-6.94,2.76,0,5.62,.59,7.76,1.79l-2.09,5.03c-2.03-1.03-3.94-1.53-5.73-1.53-2.03,0-2.68,.59-2.68,1.29,0,2.47,11.38,.41,11.38,8,0,3.76-3.21,6.94-9.59,6.94-3.44,0-6.91-.85-8.97-2.12Zm37.72-3.59v5.23h-17.11v-20.58h16.73v5.23h-9.91v2.41h8.7v5h-8.7v2.71h10.29Zm11.49,.06h-1.88v5.17h-6.94v-20.58h9.91c5.73,0,9.38,3,9.38,7.76,0,2.97-1.41,5.21-3.88,6.47l4.32,6.35h-7.41l-3.5-5.17Zm.65-10.06h-2.53v4.82h2.53c1.91,0,2.82-.91,2.82-2.41s-.91-2.41-2.82-2.41Zm34.43-5.35l-8.7,20.58h-6.82l-8.7-20.58h7.47l4.91,12.03,5.03-12.03h6.82Zm.67,0h6.94v20.58h-6.94v-20.58Zm9.47,10.29c0-6.32,4.85-10.76,11.47-10.76,4.03,0,7.2,1.47,9.23,4.12l-4.38,3.91c-1.21-1.53-2.65-2.41-4.5-2.41-2.88,0-4.82,2-4.82,5.15s1.94,5.15,4.82,5.15c1.85,0,3.29-.88,4.5-2.41l4.38,3.91c-2.03,2.65-5.2,4.12-9.23,4.12-6.62,0-11.47-4.44-11.47-10.76Zm39.81,5.06v5.23h-17.11v-20.58h16.73v5.23h-9.91v2.41h8.7v5h-8.7v2.71h10.29Zm1.38,3.59l2.23-5.06c1.94,1.15,4.53,1.88,6.79,1.88,1.97,0,2.68-.41,2.68-1.12,0-2.59-11.38-.5-11.38-8.17,0-3.82,3.21-6.94,9.59-6.94,2.76,0,5.62,.59,7.76,1.79l-2.09,5.03c-2.03-1.03-3.94-1.53-5.73-1.53-2.03,0-2.68,.59-2.68,1.29,0,2.47,11.38,.41,11.38,8,0,3.76-3.21,6.94-9.59,6.94-3.44,0-6.91-.85-8.97-2.12Z"/>
  </g>
</svg>