<?xml version="1.0" encoding="UTF-8"?>
<svg id="Layer_2" data-name="Layer 2" xmlns="http://www.w3.org/2000/svg" viewBox="0 0 569.25 232.9">
  <defs>
    <style>
      .cls-1 {
        fill: #15718b;
      }

      .cls-2 {
        fill: #1883a3;
      }

      .cls-3 {
        fill: #1c96ba;
      }
    </style>
  </defs>
  <g id="Layer_1-2" data-name="Layer 1">
    <polygon class="cls-3" points="157.02 148.78 157.02 201.45 0 201.45 0 0 67.91 0 67.91 148.78 157.02 148.78"/>
    <path class="cls-1" d="M559.79,201.45h-61.87l-.58-91.8-43.74,73.67h-29.93l-43.74-70.51v88.64h-61.88v-56.27c4.77-2.58,9.18-5.55,13.21-8.88,17.76-14.67,27.15-35.53,27.15-60.33s-9.39-45.65-27.15-60.32c-4.03-3.33-8.44-6.3-13.21-8.88V0h55.83l65.62,107.34L503.39,0h55.82l.58,201.45Z"/>
    <path class="cls-2" d="M318.05,16.22c-14.87-9.21-34.46-14.22-57.75-14.22h-94.98V199.45h63.92v-49.5h31.06c23.29,0,42.88-5.01,57.75-14.22,20.5-12.68,32.06-33.32,32.06-59.76s-11.56-47.08-32.06-59.75Zm-62.06,85.35h-26.75V50.38h26.75c19.1,0,29.62,9.09,29.62,25.59s-10.52,25.6-29.62,25.6Z"/>
    <g>
      <path class="cls-2" d="M2.2,214.45H7.32v14.04H15.96v4.06H2.2v-18.09Z"/>
      <path class="cls-2" d="M32.5,228.58v3.95h-14.53v-18.09h14.19v3.95h-9.12v3.05h8.04v3.83h-8.04v3.31h9.46Z"/>
      <path class="cls-2" d="M47.46,229.02h-7.65l-1.42,3.52h-5.22l7.99-18.09h5.04l8.01,18.09h-5.33l-1.42-3.52Zm-1.5-3.77l-2.33-5.79-2.33,5.79h4.65Z"/>
      <path class="cls-2" d="M62.64,225.97l-1.91,2.04v4.52h-5.07v-18.09h5.07v7.52l7-7.52h5.63l-7.39,8.01,7.78,10.08h-5.95l-5.17-6.57Z"/>
      <path class="cls-2" d="M89.62,228.58v3.95h-14.53v-18.09h14.19v3.95h-9.12v3.05h8.04v3.83h-8.04v3.31h9.46Z"/>
      <path class="cls-2" d="M92.46,214.45h8.56c6,0,10.11,3.49,10.11,9.05s-4.11,9.05-10.11,9.05h-8.56v-18.09Zm8.35,14.01c3.08,0,5.14-1.84,5.14-4.96s-2.07-4.96-5.14-4.96h-3.23v9.93h3.23Z"/>
      <path class="cls-2" d="M137.65,221.14c0,4.11-3.1,6.67-8.04,6.67h-3.15v4.73h-5.12v-18.09h8.27c4.94,0,8.04,2.56,8.04,6.69Zm-5.17,0c0-1.68-1.06-2.66-3.18-2.66h-2.84v5.3h2.84c2.12,0,3.18-.98,3.18-2.64Z"/>
      <path class="cls-2" d="M148.04,227.73h-2.79v4.81h-5.12v-18.09h8.27c4.94,0,8.04,2.56,8.04,6.69,0,2.66-1.29,4.63-3.54,5.71l3.9,5.69h-5.48l-3.28-4.81Zm.05-9.25h-2.84v5.3h2.84c2.12,0,3.18-.98,3.18-2.64s-1.06-2.66-3.18-2.66Z"/>
      <path class="cls-2" d="M158.32,223.49c0-5.43,4.26-9.41,10.05-9.41s10.06,3.98,10.06,9.41-4.27,9.41-10.06,9.41-10.05-3.98-10.05-9.41Zm14.94,0c0-3.13-2.15-5.17-4.89-5.17s-4.88,2.04-4.88,5.17,2.15,5.17,4.88,5.17,4.89-2.04,4.89-5.17Z"/>
      <path class="cls-2" d="M180.19,223.49c0-5.43,4.26-9.41,10.05-9.41s10.06,3.98,10.06,9.41-4.27,9.41-10.06,9.41-10.05-3.98-10.05-9.41Zm14.94,0c0-3.13-2.15-5.17-4.89-5.17s-4.88,2.04-4.88,5.17,2.15,5.17,4.88,5.17,4.89-2.04,4.89-5.17Z"/>
      <path class="cls-2" d="M208.11,218.4v3.98h7.99v3.95h-7.99v6.2h-5.12v-18.09h14.19v3.95h-9.07Z"/>
      <path class="cls-1" d="M243.44,232.54l-.05-9.59-4.65,7.81h-2.28l-4.63-7.55v9.33h-4.73v-18.09h4.21l6.36,10.44,6.2-10.44h4.21l.05,18.09h-4.7Z"/>
      <path class="cls-1" d="M263.88,229.02h-7.65l-1.42,3.52h-5.22l7.99-18.09h5.04l8.01,18.09h-5.33l-1.42-3.52Zm-1.5-3.77l-2.33-5.79-2.33,5.79h4.65Z"/>
      <path class="cls-1" d="M289.29,214.45v18.09h-4.21l-7.99-9.64v9.64h-5.01v-18.09h4.21l7.99,9.64v-9.64h5.01Z"/>
      <path class="cls-1" d="M305.04,229.02h-7.65l-1.42,3.52h-5.22l7.99-18.09h5.04l8.01,18.09h-5.33l-1.42-3.52Zm-1.5-3.77l-2.33-5.79-2.33,5.79h4.65Z"/>
      <path class="cls-1" d="M325.09,223.1h4.52v7.5c-2.09,1.5-4.96,2.3-7.6,2.3-5.76,0-9.98-3.9-9.98-9.41s4.21-9.41,10.08-9.41c3.39,0,6.13,1.16,7.91,3.31l-3.26,2.95c-1.24-1.37-2.66-2.02-4.39-2.02-3.1,0-5.17,2.04-5.17,5.17s2.07,5.17,5.12,5.17c.96,0,1.86-.18,2.77-.59v-4.96Z"/>
      <path class="cls-1" d="M347.4,228.58v3.95h-14.53v-18.09h14.19v3.95h-9.12v3.05h8.04v3.83h-8.04v3.31h9.46Z"/>
      <path class="cls-1" d="M366.58,232.54l-.05-9.59-4.65,7.81h-2.28l-4.63-7.55v9.33h-4.73v-18.09h4.21l6.36,10.44,6.2-10.44h4.21l.05,18.09h-4.7Z"/>
      <path class="cls-1" d="M389.43,228.58v3.95h-14.53v-18.09h14.19v3.95h-9.12v3.05h8.04v3.83h-8.04v3.31h9.46Z"/>
      <path class="cls-1" d="M409.49,214.45v18.09h-4.21l-7.99-9.64v9.64h-5.01v-18.09h4.21l7.99,9.64v-9.64h5.01Z"/>
      <path class="cls-1" d="M416.96,218.5h-5.56v-4.06h16.21v4.06h-5.53v14.04h-5.12v-14.04Z"/>
      <path class="cls-1" d="M435.77,230.91l1.68-3.77c1.6,1.06,3.88,1.78,5.97,1.78s2.95-.59,2.95-1.47c0-2.87-10.29-.78-10.29-7.5,0-3.23,2.64-5.87,8.01-5.87,2.35,0,4.78,.54,6.57,1.58l-1.58,3.8c-1.73-.93-3.44-1.4-5.01-1.4-2.15,0-2.92,.72-2.92,1.63,0,2.77,10.26,.7,10.26,7.37,0,3.15-2.64,5.84-8.01,5.84-2.97,0-5.92-.8-7.62-1.99Z"/>
      <path class="cls-1" d="M468.29,228.58v3.95h-14.53v-18.09h14.19v3.95h-9.12v3.05h8.04v3.83h-8.04v3.31h9.46Z"/>
      <path class="cls-1" d="M479.04,227.73h-2.79v4.81h-5.12v-18.09h8.27c4.94,0,8.04,2.56,8.04,6.69,0,2.66-1.29,4.63-3.54,5.71l3.9,5.69h-5.48l-3.28-4.81Zm.05-9.25h-2.84v5.3h2.84c2.12,0,3.18-.98,3.18-2.64s-1.06-2.66-3.18-2.66Z"/>
      <path class="cls-1" d="M508.61,214.45l-7.75,18.09h-5.04l-7.73-18.09h5.53l4.91,11.79,5.01-11.79h5.07Z"/>
      <path class="cls-1" d="M509.67,214.45h5.12v18.09h-5.12v-18.09Z"/>
      <path class="cls-1" d="M517.5,223.49c0-5.51,4.21-9.41,9.95-9.41,3.33,0,6.02,1.21,7.78,3.41l-3.26,2.95c-1.14-1.37-2.53-2.12-4.26-2.12-2.97,0-5.04,2.07-5.04,5.17s2.07,5.17,5.04,5.17c1.73,0,3.13-.75,4.26-2.12l3.26,2.95c-1.76,2.2-4.45,3.41-7.78,3.41-5.74,0-9.95-3.9-9.95-9.41Z"/>
      <path class="cls-1" d="M552.03,228.58v3.95h-14.53v-18.09h14.19v3.95h-9.12v3.05h8.04v3.83h-8.04v3.31h9.46Z"/>
      <path class="cls-1" d="M553.61,230.91l1.68-3.77c1.6,1.06,3.88,1.78,5.97,1.78s2.95-.59,2.95-1.47c0-2.87-10.29-.78-10.29-7.5,0-3.23,2.64-5.87,8.01-5.87,2.35,0,4.78,.54,6.57,1.58l-1.58,3.8c-1.73-.93-3.44-1.4-5.01-1.4-2.15,0-2.92,.72-2.92,1.63,0,2.77,10.26,.7,10.26,7.37,0,3.15-2.64,5.84-8.01,5.84-2.97,0-5.92-.8-7.62-1.99Z"/>
    </g>
  </g>
</svg>