<?xml version="1.0" encoding="UTF-8"?>
<svg id="Layer_2" data-name="Layer 2" xmlns="http://www.w3.org/2000/svg" viewBox="0 0 363.71 273.73">
  <defs>
    <style>
      .cls-1 {
        fill: #fff;
      }
    </style>
  </defs>
  <g id="Layer_1-2" data-name="Layer 1">
    <g>
      <polygon class="cls-1" points="182.36 52.37 159.88 77.86 132.36 49.04 49.58 135.76 2.76 135.76 132.36 0 182.36 52.37"/>
      <polygon class="cls-1" points="261.97 135.76 215.15 135.76 195.93 115.63 218.41 90.14 261.97 135.76"/>
    </g>
    <polygon class="cls-1" points="361.05 135.76 318.36 135.76 241.6 48.72 218.12 75.35 214.8 79.11 211.48 82.87 189 108.37 182.36 115.89 164.84 135.76 122.15 135.76 160.17 92.65 163.49 88.89 166.81 85.12 189.29 59.63 192.61 55.87 195.93 52.11 241.6 .32 361.05 135.76"/>
    <g>
      <path class="cls-1" d="M0,273.73V142.92H30.22v104.29h63.38v26.53H0Z"/>
      <path class="cls-1" d="M111.65,273.73V142.92h55.83c6.26,0,12,1.29,17.23,3.87,5.22,2.58,9.7,5.96,13.45,10.13,3.75,4.18,6.69,8.91,8.84,14.19,2.15,5.28,3.22,10.63,3.22,16.03,0,5.78-1.01,11.3-3.04,16.58-2.03,5.28-4.85,10.01-8.48,14.19-3.62,4.18-8.02,7.49-13.17,9.95-5.16,2.46-10.87,3.68-17.14,3.68h-26.53v42.19h-30.22Zm30.22-68.54h24.69c3.56,0,6.63-1.53,9.21-4.61,2.58-3.07,3.87-7.55,3.87-13.45,0-3.07-.4-5.71-1.2-7.92-.8-2.21-1.87-4.05-3.22-5.53-1.35-1.47-2.89-2.55-4.61-3.22-1.72-.67-3.44-1.01-5.16-1.01h-23.58v35.74Z"/>
      <path class="cls-1" d="M333.49,273.73v-78.31l-28.37,56.93h-16.21l-28.37-56.93v78.31h-30.22V142.92h32.8l33.9,68.36,34.09-68.36h32.61v130.82h-30.22Z"/>
    </g>
  </g>
</svg>